<?xml version="1.0" encoding="utf-8" standalone="no"?>
<!DOCTYPE svg PUBLIC "-//W3C//DTD SVG 1.1//EN"
  "http://www.w3.org/Graphics/SVG/1.1/DTD/svg11.dtd">
<!-- Created with matplotlib (http://matplotlib.org/) -->
<svg height="496pt" version="1.1" viewBox="0 0 648 496" width="648pt" xmlns="http://www.w3.org/2000/svg" xmlns:xlink="http://www.w3.org/1999/xlink">
 <defs>
  <style type="text/css">
*{stroke-linecap:butt;stroke-linejoin:round;stroke-miterlimit:100000;}
  </style>
 </defs>
 <g id="figure_1">
  <g id="patch_1">
   <path d="M 0 496.8 
L 648 496.8 
L 648 0 
L 0 0 
z
" style="fill:#ffffff;"/>
  </g>
  <g id="axes_1">
   <g id="patch_2">
    <path d="M 81 434.7 
L 583.2 434.7 
L 583.2 49.68 
L 81 49.68 
z
" style="fill:#e5e5e5;"/>
   </g>
   <g id="matplotlib.axis_1">
    <g id="xtick_1">
     <g id="line2d_1">
      <path clip-path="url(#p97b58da78a)" d="M 167.62859 434.7 
L 167.62859 49.68 
" style="fill:none;stroke:#ffffff;stroke-linecap:round;"/>
     </g>
     <g id="line2d_2">
      <defs>
       <path d="M 0 0 
L 0 0 
" id="m825795fc65" style="stroke:#555555;"/>
      </defs>
      <g>
       <use style="fill:#555555;stroke:#555555;" x="167.628590148" xlink:href="#m825795fc65" y="434.7"/>
      </g>
     </g>
     <g id="line2d_3">
      <g>
       <use style="fill:#555555;stroke:#555555;" x="167.628590148" xlink:href="#m825795fc65" y="49.68"/>
      </g>
     </g>
     <g id="text_1">
      <!-- -0.2 -->
      <defs>
       <path d="M 4.15625 35.296875 
Q 4.15625 48 6.765625 55.734375 
Q 9.375 63.484375 14.515625 67.671875 
Q 19.671875 71.875 27.484375 71.875 
Q 33.25 71.875 37.59375 69.546875 
Q 41.9375 67.234375 44.765625 62.859375 
Q 47.609375 58.5 49.21875 52.21875 
Q 50.828125 45.953125 50.828125 35.296875 
Q 50.828125 22.703125 48.234375 14.96875 
Q 45.65625 7.234375 40.5 3 
Q 35.359375 -1.21875 27.484375 -1.21875 
Q 17.140625 -1.21875 11.234375 6.203125 
Q 4.15625 15.140625 4.15625 35.296875 
M 13.1875 35.296875 
Q 13.1875 17.671875 17.3125 11.828125 
Q 21.4375 6 27.484375 6 
Q 33.546875 6 37.671875 11.859375 
Q 41.796875 17.71875 41.796875 35.296875 
Q 41.796875 52.984375 37.671875 58.78125 
Q 33.546875 64.59375 27.390625 64.59375 
Q 21.34375 64.59375 17.71875 59.46875 
Q 13.1875 52.9375 13.1875 35.296875 
" id="ArialMT-30"/>
       <path d="M 9.078125 0 
L 9.078125 10.015625 
L 19.09375 10.015625 
L 19.09375 0 
z
" id="ArialMT-2e"/>
       <path d="M 3.171875 21.484375 
L 3.171875 30.328125 
L 30.171875 30.328125 
L 30.171875 21.484375 
z
" id="ArialMT-2d"/>
       <path d="M 50.34375 8.453125 
L 50.34375 0 
L 3.03125 0 
Q 2.9375 3.171875 4.046875 6.109375 
Q 5.859375 10.9375 9.828125 15.625 
Q 13.8125 20.3125 21.34375 26.46875 
Q 33.015625 36.03125 37.109375 41.625 
Q 41.21875 47.21875 41.21875 52.203125 
Q 41.21875 57.421875 37.46875 61 
Q 33.734375 64.59375 27.734375 64.59375 
Q 21.390625 64.59375 17.578125 60.78125 
Q 13.765625 56.984375 13.71875 50.25 
L 4.6875 51.171875 
Q 5.609375 61.28125 11.65625 66.578125 
Q 17.71875 71.875 27.9375 71.875 
Q 38.234375 71.875 44.234375 66.15625 
Q 50.25 60.453125 50.25 52 
Q 50.25 47.703125 48.484375 43.546875 
Q 46.734375 39.40625 42.65625 34.8125 
Q 38.578125 30.21875 29.109375 22.21875 
Q 21.1875 15.578125 18.9375 13.203125 
Q 16.703125 10.84375 15.234375 8.453125 
z
" id="ArialMT-32"/>
      </defs>
      <g style="fill:#555555;" transform="translate(159.013746398 448.8578125)scale(0.1 -0.1)">
       <use xlink:href="#ArialMT-2d"/>
       <use x="33.30078125" xlink:href="#ArialMT-30"/>
       <use x="88.916015625" xlink:href="#ArialMT-2e"/>
       <use x="116.69921875" xlink:href="#ArialMT-32"/>
      </g>
     </g>
    </g>
    <g id="xtick_2">
     <g id="line2d_4">
      <path clip-path="url(#p97b58da78a)" d="M 267.96825 434.7 
L 267.96825 49.68 
" style="fill:none;stroke:#ffffff;stroke-linecap:round;"/>
     </g>
     <g id="line2d_5">
      <g>
       <use style="fill:#555555;stroke:#555555;" x="267.968250488" xlink:href="#m825795fc65" y="434.7"/>
      </g>
     </g>
     <g id="line2d_6">
      <g>
       <use style="fill:#555555;stroke:#555555;" x="267.968250488" xlink:href="#m825795fc65" y="49.68"/>
      </g>
     </g>
     <g id="text_2">
      <!-- 0.0 -->
      <g style="fill:#555555;" transform="translate(261.018250488 448.8578125)scale(0.1 -0.1)">
       <use xlink:href="#ArialMT-30"/>
       <use x="55.615234375" xlink:href="#ArialMT-2e"/>
       <use x="83.3984375" xlink:href="#ArialMT-30"/>
      </g>
     </g>
    </g>
    <g id="xtick_3">
     <g id="line2d_7">
      <path clip-path="url(#p97b58da78a)" d="M 368.307911 434.7 
L 368.307911 49.68 
" style="fill:none;stroke:#ffffff;stroke-linecap:round;"/>
     </g>
     <g id="line2d_8">
      <g>
       <use style="fill:#555555;stroke:#555555;" x="368.307910828" xlink:href="#m825795fc65" y="434.7"/>
      </g>
     </g>
     <g id="line2d_9">
      <g>
       <use style="fill:#555555;stroke:#555555;" x="368.307910828" xlink:href="#m825795fc65" y="49.68"/>
      </g>
     </g>
     <g id="text_3">
      <!-- 0.2 -->
      <g style="fill:#555555;" transform="translate(361.357910828 448.8578125)scale(0.1 -0.1)">
       <use xlink:href="#ArialMT-30"/>
       <use x="55.615234375" xlink:href="#ArialMT-2e"/>
       <use x="83.3984375" xlink:href="#ArialMT-32"/>
      </g>
     </g>
    </g>
    <g id="xtick_4">
     <g id="line2d_10">
      <path clip-path="url(#p97b58da78a)" d="M 468.647571 434.7 
L 468.647571 49.68 
" style="fill:none;stroke:#ffffff;stroke-linecap:round;"/>
     </g>
     <g id="line2d_11">
      <g>
       <use style="fill:#555555;stroke:#555555;" x="468.647571167" xlink:href="#m825795fc65" y="434.7"/>
      </g>
     </g>
     <g id="line2d_12">
      <g>
       <use style="fill:#555555;stroke:#555555;" x="468.647571167" xlink:href="#m825795fc65" y="49.68"/>
      </g>
     </g>
     <g id="text_4">
      <!-- 0.4 -->
      <defs>
       <path d="M 32.328125 0 
L 32.328125 17.140625 
L 1.265625 17.140625 
L 1.265625 25.203125 
L 33.9375 71.578125 
L 41.109375 71.578125 
L 41.109375 25.203125 
L 50.78125 25.203125 
L 50.78125 17.140625 
L 41.109375 17.140625 
L 41.109375 0 
z
M 32.328125 25.203125 
L 32.328125 57.46875 
L 9.90625 25.203125 
z
" id="ArialMT-34"/>
      </defs>
      <g style="fill:#555555;" transform="translate(461.697571167 448.8578125)scale(0.1 -0.1)">
       <use xlink:href="#ArialMT-30"/>
       <use x="55.615234375" xlink:href="#ArialMT-2e"/>
       <use x="83.3984375" xlink:href="#ArialMT-34"/>
      </g>
     </g>
    </g>
    <g id="xtick_5">
     <g id="line2d_13">
      <path clip-path="url(#p97b58da78a)" d="M 568.987232 434.7 
L 568.987232 49.68 
" style="fill:none;stroke:#ffffff;stroke-linecap:round;"/>
     </g>
     <g id="line2d_14">
      <g>
       <use style="fill:#555555;stroke:#555555;" x="568.987231507" xlink:href="#m825795fc65" y="434.7"/>
      </g>
     </g>
     <g id="line2d_15">
      <g>
       <use style="fill:#555555;stroke:#555555;" x="568.987231507" xlink:href="#m825795fc65" y="49.68"/>
      </g>
     </g>
     <g id="text_5">
      <!-- 0.6 -->
      <defs>
       <path d="M 49.75 54.046875 
L 41.015625 53.375 
Q 39.84375 58.546875 37.703125 60.890625 
Q 34.125 64.65625 28.90625 64.65625 
Q 24.703125 64.65625 21.53125 62.3125 
Q 17.390625 59.28125 14.984375 53.46875 
Q 12.59375 47.65625 12.5 36.921875 
Q 15.671875 41.75 20.265625 44.09375 
Q 24.859375 46.4375 29.890625 46.4375 
Q 38.671875 46.4375 44.84375 39.96875 
Q 51.03125 33.5 51.03125 23.25 
Q 51.03125 16.5 48.125 10.71875 
Q 45.21875 4.9375 40.140625 1.859375 
Q 35.0625 -1.21875 28.609375 -1.21875 
Q 17.625 -1.21875 10.6875 6.859375 
Q 3.765625 14.9375 3.765625 33.5 
Q 3.765625 54.25 11.421875 63.671875 
Q 18.109375 71.875 29.4375 71.875 
Q 37.890625 71.875 43.28125 67.140625 
Q 48.6875 62.40625 49.75 54.046875 
M 13.875 23.1875 
Q 13.875 18.65625 15.796875 14.5 
Q 17.71875 10.359375 21.1875 8.171875 
Q 24.65625 6 28.46875 6 
Q 34.03125 6 38.03125 10.484375 
Q 42.046875 14.984375 42.046875 22.703125 
Q 42.046875 30.125 38.078125 34.390625 
Q 34.125 38.671875 28.125 38.671875 
Q 22.171875 38.671875 18.015625 34.390625 
Q 13.875 30.125 13.875 23.1875 
" id="ArialMT-36"/>
      </defs>
      <g style="fill:#555555;" transform="translate(562.037231507 448.8578125)scale(0.1 -0.1)">
       <use xlink:href="#ArialMT-30"/>
       <use x="55.615234375" xlink:href="#ArialMT-2e"/>
       <use x="83.3984375" xlink:href="#ArialMT-36"/>
      </g>
     </g>
    </g>
    <g id="text_6">
     <!-- $Specific$ $gravity$ $of$ $the$ $urine$ -->
     <defs>
      <path d="M 10.6875 11.28125 
Q 10.6875 13.53125 11.21875 16.203125 
Q 11.765625 18.890625 12.296875 20.625 
Q 12.84375 22.359375 14.75 27.390625 
Q 16.65625 32.421875 16.703125 32.625 
Q 18.015625 36.28125 18.015625 38.625 
Q 18.015625 41.609375 15.828125 41.609375 
Q 11.859375 41.609375 9.296875 37.53125 
Q 6.734375 33.453125 5.515625 28.421875 
Q 5.328125 27.78125 4.6875 27.78125 
L 3.515625 27.78125 
Q 2.6875 27.78125 2.6875 28.71875 
L 2.6875 29 
Q 4.296875 34.96875 7.609375 39.578125 
Q 10.9375 44.1875 16.015625 44.1875 
Q 19.578125 44.1875 22.046875 41.84375 
Q 24.515625 39.5 24.515625 35.890625 
Q 24.515625 34.03125 23.6875 31.984375 
Q 21.734375 26.90625 20.609375 23.84375 
Q 19.484375 20.796875 18.53125 17.015625 
Q 17.578125 13.234375 17.578125 10.015625 
Q 17.578125 6.25 19.3125 3.875 
Q 21.046875 1.515625 24.703125 1.515625 
Q 31.640625 1.515625 37.203125 12.203125 
Q 38.96875 15.671875 40.53125 20.359375 
Q 42.09375 25.046875 42.09375 27.984375 
Q 42.09375 31 41.109375 32.6875 
Q 40.140625 34.375 38.578125 36.203125 
Q 37.015625 38.03125 37.015625 39.109375 
Q 37.015625 41.0625 38.625 42.671875 
Q 40.234375 44.28125 42.1875 44.28125 
Q 44.578125 44.28125 45.625 42.078125 
Q 46.6875 39.890625 46.6875 37.109375 
Q 46.6875 33.796875 45.734375 29.203125 
Q 44.78125 24.609375 43.09375 19.671875 
Q 41.40625 14.75 39.984375 11.921875 
Q 33.40625 -1.125 24.609375 -1.125 
Q 18.3125 -1.125 14.5 2.015625 
Q 10.6875 5.171875 10.6875 11.28125 
" id="Cmmi10-76"/>
      <path d="M 6.109375 -2.203125 
Q 5.8125 -2.203125 5.5625 -1.859375 
Q 5.328125 -1.515625 5.328125 -1.21875 
L 11.078125 22.125 
Q 11.28125 22.703125 11.921875 22.703125 
L 13.09375 22.703125 
Q 13.484375 22.703125 13.703125 22.40625 
Q 13.921875 22.125 13.921875 21.6875 
Q 13.09375 18.265625 13.09375 15.578125 
Q 13.09375 8.34375 18.0625 4.828125 
Q 23.046875 1.3125 30.609375 1.3125 
Q 33.890625 1.3125 37.0625 2.921875 
Q 40.234375 4.546875 42.59375 7.125 
Q 44.96875 9.71875 46.375 12.90625 
Q 47.796875 16.109375 47.796875 19.390625 
Q 47.796875 22.90625 45.9375 25.65625 
Q 44.09375 28.421875 40.828125 29.203125 
L 28.609375 32.421875 
Q 23.6875 33.734375 20.75 37.71875 
Q 17.828125 41.703125 17.828125 46.6875 
Q 17.828125 52.6875 21.390625 58.25 
Q 24.953125 63.8125 30.6875 67.15625 
Q 36.421875 70.515625 42.390625 70.515625 
Q 46.96875 70.515625 50.796875 68.828125 
Q 54.640625 67.140625 56.6875 63.484375 
L 62.40625 70.21875 
Q 62.984375 70.515625 63.09375 70.515625 
L 63.71875 70.515625 
Q 64.109375 70.515625 64.34375 70.171875 
Q 64.59375 69.828125 64.59375 69.484375 
L 58.796875 46.296875 
Q 58.640625 45.609375 58.015625 45.609375 
L 56.78125 45.609375 
Q 55.90625 45.609375 55.90625 46.6875 
Q 56.390625 49.859375 56.390625 52.203125 
Q 56.390625 56.84375 54.796875 60.28125 
Q 53.21875 63.71875 50.015625 65.5 
Q 46.828125 67.28125 42.09375 67.28125 
Q 38.09375 67.28125 34.125 64.984375 
Q 30.171875 62.703125 27.734375 58.890625 
Q 25.296875 55.078125 25.296875 50.984375 
Q 25.296875 47.75 27.171875 45.265625 
Q 29.046875 42.78125 32.171875 41.890625 
L 44.390625 38.71875 
Q 47.703125 37.84375 50.171875 35.625 
Q 52.640625 33.40625 53.90625 30.34375 
Q 55.171875 27.296875 55.171875 23.6875 
Q 55.171875 18.953125 53.171875 14.328125 
Q 51.171875 9.71875 47.578125 5.90625 
Q 44 2.09375 39.453125 -0.046875 
Q 34.90625 -2.203125 30.171875 -2.203125 
Q 18.265625 -2.203125 13.09375 4.78125 
L 7.515625 -1.90625 
Q 6.9375 -2.203125 6.78125 -2.203125 
z
" id="Cmmi10-53"/>
      <path d="M 9.71875 -16.5 
Q 11.578125 -17.921875 14.203125 -17.921875 
Q 17.78125 -17.921875 20.015625 -10.015625 
Q 20.953125 -6.203125 25.09375 15.09375 
L 29.6875 39.59375 
L 21.09375 39.59375 
Q 20.125 39.59375 20.125 40.921875 
Q 20.515625 43.109375 21.390625 43.109375 
L 30.328125 43.109375 
L 31.5 49.609375 
Q 32.078125 52.640625 32.5625 54.8125 
Q 33.0625 56.984375 33.625 58.828125 
Q 34.1875 60.6875 35.296875 62.984375 
Q 37.015625 66.265625 39.921875 68.390625 
Q 42.828125 70.515625 46.1875 70.515625 
Q 48.390625 70.515625 50.46875 69.703125 
Q 52.546875 68.890625 53.859375 67.28125 
Q 55.171875 65.671875 55.171875 63.484375 
Q 55.171875 60.9375 53.484375 59.046875 
Q 51.8125 57.171875 49.421875 57.171875 
Q 47.796875 57.171875 46.65625 58.171875 
Q 45.515625 59.1875 45.515625 60.796875 
Q 45.515625 62.984375 47 64.625 
Q 48.484375 66.265625 50.6875 66.5 
Q 48.828125 67.921875 46.09375 67.921875 
Q 44.578125 67.921875 43.234375 66.5 
Q 41.890625 65.09375 41.5 63.484375 
Q 40.875 60.9375 38.71875 49.703125 
L 37.5 43.109375 
L 47.796875 43.109375 
Q 48.78125 43.109375 48.78125 41.796875 
Q 48.734375 41.546875 48.578125 40.9375 
Q 48.4375 40.328125 48.171875 39.953125 
Q 47.90625 39.59375 47.515625 39.59375 
L 36.8125 39.59375 
L 32.171875 15.1875 
Q 31.296875 9.859375 30.140625 4.359375 
Q 29 -1.125 26.921875 -6.90625 
Q 24.859375 -12.703125 21.625 -16.609375 
Q 18.40625 -20.515625 14.015625 -20.515625 
Q 10.640625 -20.515625 7.984375 -18.578125 
Q 5.328125 -16.65625 5.328125 -13.484375 
Q 5.328125 -10.9375 6.953125 -9.046875 
Q 8.59375 -7.171875 11.078125 -7.171875 
Q 12.75 -7.171875 13.859375 -8.171875 
Q 14.984375 -9.1875 14.984375 -10.796875 
Q 14.984375 -12.9375 13.390625 -14.71875 
Q 11.8125 -16.5 9.71875 -16.5 
" id="Cmmi10-66"/>
      <path d="M 20.125 -1.125 
Q 15.328125 -1.125 11.734375 1.359375 
Q 8.15625 3.859375 6.265625 8.078125 
Q 4.390625 12.3125 4.390625 17 
Q 4.390625 24.125 7.984375 30.390625 
Q 11.578125 36.671875 17.71875 40.421875 
Q 23.875 44.1875 30.90625 44.1875 
Q 35.203125 44.1875 38.40625 41.96875 
Q 41.609375 39.75 41.609375 35.59375 
Q 41.609375 29.828125 37.015625 27.015625 
Q 32.421875 24.21875 26.65625 23.5625 
Q 20.90625 22.90625 13.921875 22.90625 
L 13.625 22.90625 
Q 12.015625 16.9375 12.015625 12.703125 
Q 12.015625 8.25 14.0625 4.875 
Q 16.109375 1.515625 20.3125 1.515625 
Q 26.265625 1.515625 31.75 4.25 
Q 37.25 6.984375 40.71875 11.8125 
Q 41.015625 12.109375 41.5 12.109375 
Q 42 12.109375 42.5 11.546875 
Q 43.015625 10.984375 43.015625 10.5 
Q 43.015625 10.109375 42.828125 9.90625 
Q 39.15625 4.78125 32.953125 1.828125 
Q 26.765625 -1.125 20.125 -1.125 
M 14.203125 25.484375 
Q 20.015625 25.484375 24.953125 26.015625 
Q 29.890625 26.5625 33.890625 28.734375 
Q 37.890625 30.90625 37.890625 35.5 
Q 37.890625 37.359375 36.859375 38.75 
Q 35.84375 40.140625 34.203125 40.875 
Q 32.5625 41.609375 30.8125 41.609375 
Q 26.5625 41.609375 23.171875 39.3125 
Q 19.78125 37.015625 17.578125 33.328125 
Q 15.375 29.640625 14.203125 25.484375 
" id="Cmmi10-65"/>
      <path id="ArialMT-20"/>
      <path d="M 1.421875 -14.3125 
Q 1.421875 -11.859375 3.09375 -10.03125 
Q 4.78125 -8.203125 7.171875 -8.203125 
Q 8.796875 -8.203125 9.890625 -9.203125 
Q 10.984375 -10.203125 10.984375 -11.8125 
Q 10.984375 -13.625 9.953125 -15.0625 
Q 8.9375 -16.5 7.328125 -17.09375 
Q 10.015625 -17.921875 15.71875 -17.921875 
Q 20.3125 -17.921875 24.125 -14.375 
Q 27.9375 -10.84375 29.109375 -6.203125 
L 31.984375 5.515625 
Q 26.5625 0 20.703125 0 
Q 16.40625 0 13.34375 2.1875 
Q 10.296875 4.390625 8.6875 8.046875 
Q 7.078125 11.71875 7.078125 15.828125 
Q 7.078125 20.40625 8.953125 25.4375 
Q 10.84375 30.46875 14.234375 34.765625 
Q 17.625 39.0625 22.015625 41.625 
Q 26.421875 44.1875 31.296875 44.1875 
Q 34.234375 44.1875 36.578125 42.578125 
Q 38.921875 40.96875 40.28125 38.28125 
Q 41.265625 42.1875 44.578125 42.1875 
Q 45.84375 42.1875 46.71875 41.421875 
Q 47.609375 40.671875 47.609375 39.40625 
Q 47.609375 39.109375 47.578125 38.953125 
Q 47.5625 38.8125 47.515625 38.625 
L 36.078125 -6.78125 
Q 35.296875 -9.90625 33.203125 -12.5 
Q 31.109375 -15.09375 28.265625 -16.828125 
Q 25.4375 -18.5625 22.0625 -19.53125 
Q 18.703125 -20.515625 15.578125 -20.515625 
Q 9.859375 -20.515625 5.640625 -19.40625 
Q 1.421875 -18.3125 1.421875 -14.3125 
M 20.90625 2.59375 
Q 27.296875 2.59375 33.5 11.375 
L 39.015625 33.203125 
Q 38.328125 36.671875 36.28125 39.140625 
Q 34.234375 41.609375 31.109375 41.609375 
Q 27.78125 41.609375 24.828125 38.890625 
Q 21.875 36.1875 19.921875 32.421875 
Q 18.0625 28.8125 16.328125 22.046875 
Q 14.59375 15.28125 14.59375 11.375 
Q 14.59375 7.953125 16.15625 5.265625 
Q 17.71875 2.59375 20.90625 2.59375 
" id="Cmmi10-67"/>
      <path d="M -2.484375 -19.390625 
Q -3.421875 -19.390625 -3.421875 -18.109375 
Q -3.078125 -15.921875 -2.09375 -15.921875 
Q 1.03125 -15.921875 2.265625 -15.359375 
Q 3.515625 -14.796875 4.203125 -12.5 
L 15.484375 32.515625 
Q 16.21875 34.375 16.21875 37.3125 
Q 16.21875 41.609375 13.28125 41.609375 
Q 10.15625 41.609375 8.640625 37.859375 
Q 7.125 34.125 5.71875 28.421875 
Q 5.71875 27.78125 4.890625 27.78125 
L 3.71875 27.78125 
Q 3.46875 27.78125 3.171875 28.140625 
Q 2.875 28.515625 2.875 28.8125 
Q 3.953125 33.15625 4.953125 36.171875 
Q 5.953125 39.203125 8.078125 41.6875 
Q 10.203125 44.1875 13.375 44.1875 
Q 16.796875 44.1875 19.375 42.25 
Q 21.96875 40.328125 22.703125 37.015625 
Q 25.4375 40.1875 28.75 42.1875 
Q 32.078125 44.1875 35.59375 44.1875 
Q 39.796875 44.1875 42.890625 41.9375 
Q 46 39.703125 47.5625 36.0625 
Q 49.125 32.421875 49.125 28.21875 
Q 49.125 21.78125 45.828125 14.890625 
Q 42.53125 8.015625 36.890625 3.4375 
Q 31.25 -1.125 24.8125 -1.125 
Q 21.875 -1.125 19.5 0.53125 
Q 17.140625 2.203125 15.828125 4.890625 
L 11.28125 -12.890625 
Q 11.03125 -14.359375 10.984375 -14.59375 
Q 10.984375 -15.921875 17.578125 -15.921875 
Q 18.609375 -15.921875 18.609375 -17.1875 
Q 18.265625 -18.5 18.046875 -18.9375 
Q 17.828125 -19.390625 16.890625 -19.390625 
z
M 24.90625 1.515625 
Q 28.375 1.515625 31.34375 4.375 
Q 34.328125 7.234375 36.1875 10.796875 
Q 37.546875 13.484375 38.734375 17.359375 
Q 39.9375 21.234375 40.8125 25.625 
Q 41.703125 30.03125 41.703125 32.625 
Q 41.703125 34.90625 41.09375 36.90625 
Q 40.484375 38.921875 39.09375 40.265625 
Q 37.703125 41.609375 35.40625 41.609375 
Q 31.734375 41.609375 28.484375 38.984375 
Q 25.25 36.375 22.609375 32.515625 
L 22.609375 32.171875 
L 17.09375 10.109375 
Q 17.78125 6.546875 19.734375 4.03125 
Q 21.6875 1.515625 24.90625 1.515625 
" id="Cmmi10-70"/>
      <path d="M 7.8125 7.171875 
Q 7.8125 9.03125 8.59375 11.078125 
L 16.703125 32.625 
Q 18.015625 36.28125 18.015625 38.625 
Q 18.015625 41.609375 15.828125 41.609375 
Q 11.859375 41.609375 9.296875 37.53125 
Q 6.734375 33.453125 5.515625 28.421875 
Q 5.328125 27.78125 4.6875 27.78125 
L 3.515625 27.78125 
Q 2.6875 27.78125 2.6875 28.71875 
L 2.6875 29 
Q 4.296875 34.96875 7.609375 39.578125 
Q 10.9375 44.1875 16.015625 44.1875 
Q 19.578125 44.1875 22.046875 41.84375 
Q 24.515625 39.5 24.515625 35.890625 
Q 24.515625 34.03125 23.6875 31.984375 
L 15.578125 10.5 
Q 14.203125 7.171875 14.203125 4.5 
Q 14.203125 1.515625 16.5 1.515625 
Q 20.40625 1.515625 23.015625 5.6875 
Q 25.640625 9.859375 26.703125 14.703125 
Q 26.90625 15.28125 27.484375 15.28125 
L 28.71875 15.28125 
Q 29.109375 15.28125 29.34375 15.015625 
Q 29.59375 14.75 29.59375 14.40625 
Q 29.59375 14.3125 29.5 14.109375 
Q 28.125 8.453125 24.734375 3.65625 
Q 21.34375 -1.125 16.3125 -1.125 
Q 12.796875 -1.125 10.296875 1.296875 
Q 7.8125 3.71875 7.8125 7.171875 
M 19.09375 60.59375 
Q 19.09375 62.703125 20.84375 64.40625 
Q 22.609375 66.109375 24.703125 66.109375 
Q 26.421875 66.109375 27.515625 65.0625 
Q 28.609375 64.015625 28.609375 62.40625 
Q 28.609375 60.15625 26.828125 58.46875 
Q 25.046875 56.78125 22.90625 56.78125 
Q 21.296875 56.78125 20.1875 57.875 
Q 19.09375 58.984375 19.09375 60.59375 
" id="Cmmi10-69"/>
      <path d="M 7.71875 1.703125 
Q 7.71875 2.296875 7.8125 2.59375 
L 15.28125 32.421875 
Q 16.015625 35.203125 16.015625 37.3125 
Q 16.015625 41.609375 13.09375 41.609375 
Q 9.96875 41.609375 8.453125 37.859375 
Q 6.9375 34.125 5.515625 28.421875 
Q 5.515625 28.125 5.21875 27.953125 
Q 4.9375 27.78125 4.6875 27.78125 
L 3.515625 27.78125 
Q 3.171875 27.78125 2.921875 28.140625 
Q 2.6875 28.515625 2.6875 28.8125 
Q 3.765625 33.15625 4.765625 36.171875 
Q 5.765625 39.203125 7.890625 41.6875 
Q 10.015625 44.1875 13.1875 44.1875 
Q 16.65625 44.1875 19.265625 42.1875 
Q 21.875 40.1875 22.515625 36.921875 
Q 25.046875 40.234375 28.296875 42.203125 
Q 31.546875 44.1875 35.40625 44.1875 
Q 38.578125 44.1875 40.984375 42.328125 
Q 43.40625 40.484375 43.40625 37.3125 
Q 43.40625 34.765625 41.8125 32.875 
Q 40.234375 31 37.59375 31 
Q 35.984375 31 34.890625 32 
Q 33.796875 33.015625 33.796875 34.625 
Q 33.796875 36.8125 35.40625 38.546875 
Q 37.015625 40.28125 39.109375 40.28125 
Q 37.5 41.609375 35.203125 41.609375 
Q 30.90625 41.609375 27.734375 38.546875 
Q 24.5625 35.5 22.015625 30.8125 
L 14.890625 2.203125 
Q 14.546875 0.828125 13.34375 -0.140625 
Q 12.15625 -1.125 10.6875 -1.125 
Q 9.46875 -1.125 8.59375 -0.34375 
Q 7.71875 0.4375 7.71875 1.703125 
" id="Cmmi10-72"/>
      <path d="M 20.125 -1.125 
Q 15.375 -1.125 11.6875 1.125 
Q 8.015625 3.375 6 7.171875 
Q 4 10.984375 4 15.828125 
Q 4 22.609375 7.78125 29.25 
Q 11.578125 35.890625 17.84375 40.03125 
Q 24.125 44.1875 31 44.1875 
Q 34.71875 44.1875 37.625 42.921875 
Q 40.53125 41.65625 42.671875 39.359375 
Q 44.828125 37.0625 45.96875 33.984375 
Q 47.125 30.90625 47.125 27.296875 
Q 47.125 22.078125 44.921875 17.015625 
Q 42.71875 11.96875 38.890625 7.84375 
Q 35.0625 3.71875 30.125 1.296875 
Q 25.203125 -1.125 20.125 -1.125 
M 20.3125 1.515625 
Q 24.75 1.515625 28.4375 4.53125 
Q 32.125 7.5625 34.484375 12.171875 
Q 36.859375 16.796875 38.125 21.921875 
Q 39.40625 27.046875 39.40625 31.203125 
Q 39.40625 35.546875 37.234375 38.578125 
Q 35.0625 41.609375 30.8125 41.609375 
Q 24.953125 41.609375 20.546875 36.59375 
Q 16.15625 31.59375 13.9375 24.625 
Q 11.71875 17.671875 11.71875 11.921875 
Q 11.71875 7.5625 13.9375 4.53125 
Q 16.15625 1.515625 20.3125 1.515625 
" id="Cmmi10-6f"/>
      <path d="M 6.203125 8.109375 
Q 6.203125 9.578125 6.5 10.890625 
L 13.71875 39.59375 
L 3.21875 39.59375 
Q 2.203125 39.59375 2.203125 40.921875 
Q 2.59375 43.109375 3.515625 43.109375 
L 14.59375 43.109375 
L 18.609375 59.421875 
Q 19 60.75 20.171875 61.671875 
Q 21.34375 62.59375 22.796875 62.59375 
Q 24.078125 62.59375 24.921875 61.828125 
Q 25.78125 61.078125 25.78125 59.8125 
Q 25.78125 59.515625 25.75 59.34375 
Q 25.734375 59.1875 25.6875 58.984375 
L 21.6875 43.109375 
L 31.984375 43.109375 
Q 33.015625 43.109375 33.015625 41.796875 
Q 32.953125 41.546875 32.8125 40.953125 
Q 32.671875 40.375 32.421875 39.984375 
Q 32.171875 39.59375 31.6875 39.59375 
L 20.796875 39.59375 
L 13.625 10.6875 
Q 12.890625 7.859375 12.890625 5.8125 
Q 12.890625 1.515625 15.828125 1.515625 
Q 20.21875 1.515625 23.609375 5.640625 
Q 27 9.765625 28.8125 14.703125 
Q 29.203125 15.28125 29.59375 15.28125 
L 30.8125 15.28125 
Q 31.203125 15.28125 31.4375 15.015625 
Q 31.6875 14.75 31.6875 14.40625 
Q 31.6875 14.203125 31.59375 14.109375 
Q 29.390625 8.0625 25.1875 3.46875 
Q 21 -1.125 15.578125 -1.125 
Q 11.625 -1.125 8.90625 1.453125 
Q 6.203125 4.046875 6.203125 8.109375 
" id="Cmmi10-74"/>
      <path d="M 5.328125 1.8125 
Q 5.328125 2.390625 5.421875 2.6875 
L 19.921875 60.5 
Q 20.3125 62.203125 20.40625 63.1875 
Q 20.40625 64.796875 13.921875 64.796875 
Q 12.890625 64.796875 12.890625 66.109375 
Q 12.9375 66.359375 13.109375 66.984375 
Q 13.28125 67.625 13.546875 67.96875 
Q 13.8125 68.3125 14.3125 68.3125 
L 27.78125 69.390625 
L 28.078125 69.390625 
Q 28.078125 69.28125 28.421875 69.109375 
Q 28.765625 68.953125 28.8125 68.890625 
Q 29 68.40625 29 68.109375 
L 21.1875 36.921875 
Q 27.34375 44.1875 35.796875 44.1875 
Q 39.3125 44.1875 41.875 42.96875 
Q 44.4375 41.75 45.875 39.28125 
Q 47.3125 36.8125 47.3125 33.40625 
Q 47.3125 29.296875 45.484375 23.484375 
Q 43.65625 17.671875 40.921875 10.5 
Q 39.5 7.234375 39.5 4.5 
Q 39.5 1.515625 41.796875 1.515625 
Q 45.703125 1.515625 48.3125 5.6875 
Q 50.921875 9.859375 52 14.703125 
Q 52.203125 15.28125 52.78125 15.28125 
L 54 15.28125 
Q 54.390625 15.28125 54.640625 15.015625 
Q 54.890625 14.75 54.890625 14.40625 
Q 54.890625 14.3125 54.78125 14.109375 
Q 53.90625 10.5 52.171875 7 
Q 50.4375 3.515625 47.796875 1.1875 
Q 45.171875 -1.125 41.609375 -1.125 
Q 38.09375 -1.125 35.59375 1.296875 
Q 33.109375 3.71875 33.109375 7.171875 
Q 33.109375 9.03125 33.890625 11.078125 
Q 36.71875 18.609375 38.59375 24.515625 
Q 40.484375 30.421875 40.484375 34.90625 
Q 40.484375 37.796875 39.359375 39.703125 
Q 38.234375 41.609375 35.59375 41.609375 
Q 30.21875 41.609375 26.21875 38.3125 
Q 22.21875 35.015625 19.28125 29.59375 
L 12.5 2.296875 
Q 12.109375 0.78125 10.984375 -0.171875 
Q 9.859375 -1.125 8.40625 -1.125 
Q 7.125 -1.125 6.21875 -0.265625 
Q 5.328125 0.59375 5.328125 1.8125 
" id="Cmmi10-68"/>
      <path d="M 17.390625 -1.125 
Q 11.078125 -1.125 7.4375 3.640625 
Q 3.8125 8.40625 3.8125 14.890625 
Q 3.8125 21.296875 7.125 28.171875 
Q 10.453125 35.0625 16.09375 39.625 
Q 21.734375 44.1875 28.21875 44.1875 
Q 31.203125 44.1875 33.546875 42.578125 
Q 35.890625 40.96875 37.203125 38.1875 
Q 38.328125 42.1875 41.609375 42.1875 
Q 42.875 42.1875 43.71875 41.421875 
Q 44.578125 40.671875 44.578125 39.40625 
Q 44.578125 39.109375 44.546875 38.953125 
Q 44.53125 38.8125 44.484375 38.625 
L 37.5 10.6875 
Q 36.8125 7.71875 36.8125 5.8125 
Q 36.8125 1.515625 39.703125 1.515625 
Q 42.828125 1.515625 44.453125 5.484375 
Q 46.09375 9.46875 47.21875 14.703125 
Q 47.40625 15.28125 48 15.28125 
L 49.21875 15.28125 
Q 49.609375 15.28125 49.84375 14.9375 
Q 50.09375 14.59375 50.09375 14.3125 
Q 48.34375 7.328125 46.265625 3.09375 
Q 44.1875 -1.125 39.5 -1.125 
Q 36.140625 -1.125 33.546875 0.84375 
Q 30.953125 2.828125 30.328125 6.109375 
Q 23.875 -1.125 17.390625 -1.125 
M 17.484375 1.515625 
Q 21.09375 1.515625 24.484375 4.21875 
Q 27.875 6.9375 30.328125 10.59375 
Q 30.421875 10.6875 30.421875 10.890625 
L 35.796875 32.625 
L 35.890625 32.90625 
Q 35.296875 36.46875 33.3125 39.03125 
Q 31.34375 41.609375 27.984375 41.609375 
Q 24.609375 41.609375 21.703125 38.84375 
Q 18.796875 36.078125 16.796875 32.328125 
Q 14.84375 28.328125 13.0625 21.34375 
Q 11.28125 14.359375 11.28125 10.5 
Q 11.28125 7.03125 12.765625 4.265625 
Q 14.265625 1.515625 17.484375 1.515625 
" id="Cmmi10-61"/>
      <path d="M 7.71875 1.703125 
Q 7.71875 2.296875 7.8125 2.59375 
L 15.28125 32.421875 
Q 16.015625 35.203125 16.015625 37.3125 
Q 16.015625 41.609375 13.09375 41.609375 
Q 9.96875 41.609375 8.453125 37.859375 
Q 6.9375 34.125 5.515625 28.421875 
Q 5.515625 28.125 5.21875 27.953125 
Q 4.9375 27.78125 4.6875 27.78125 
L 3.515625 27.78125 
Q 3.171875 27.78125 2.921875 28.140625 
Q 2.6875 28.515625 2.6875 28.8125 
Q 3.765625 33.15625 4.765625 36.171875 
Q 5.765625 39.203125 7.890625 41.6875 
Q 10.015625 44.1875 13.1875 44.1875 
Q 16.9375 44.1875 19.8125 41.8125 
Q 22.703125 39.453125 22.703125 35.796875 
Q 25.6875 39.703125 29.6875 41.9375 
Q 33.6875 44.1875 38.1875 44.1875 
Q 41.75 44.1875 44.328125 42.96875 
Q 46.921875 41.75 48.359375 39.28125 
Q 49.8125 36.8125 49.8125 33.40625 
Q 49.8125 29.296875 47.96875 23.484375 
Q 46.140625 17.671875 43.40625 10.5 
Q 42 7.234375 42 4.5 
Q 42 1.515625 44.28125 1.515625 
Q 48.1875 1.515625 50.796875 5.703125 
Q 53.421875 9.90625 54.5 14.703125 
Q 54.6875 15.28125 55.328125 15.28125 
L 56.5 15.28125 
Q 56.890625 15.28125 57.15625 15.03125 
Q 57.421875 14.796875 57.421875 14.40625 
Q 57.421875 14.3125 57.328125 14.109375 
Q 55.953125 8.453125 52.5625 3.65625 
Q 49.171875 -1.125 44.09375 -1.125 
Q 40.578125 -1.125 38.078125 1.296875 
Q 35.59375 3.71875 35.59375 7.171875 
Q 35.59375 9.03125 36.375 11.078125 
Q 37.640625 14.359375 39.28125 18.890625 
Q 40.921875 23.4375 41.96875 27.578125 
Q 43.015625 31.734375 43.015625 34.90625 
Q 43.015625 37.703125 41.859375 39.65625 
Q 40.71875 41.609375 37.984375 41.609375 
Q 34.328125 41.609375 31.25 39.984375 
Q 28.171875 38.375 25.875 35.71875 
Q 23.578125 33.0625 21.6875 29.390625 
L 14.890625 2.203125 
Q 14.546875 0.828125 13.34375 -0.140625 
Q 12.15625 -1.125 10.6875 -1.125 
Q 9.46875 -1.125 8.59375 -0.34375 
Q 7.71875 0.4375 7.71875 1.703125 
" id="Cmmi10-6e"/>
      <path d="M 11.71875 11.921875 
Q 11.71875 7.5625 13.9375 4.53125 
Q 16.15625 1.515625 20.3125 1.515625 
Q 26.265625 1.515625 31.75 4.25 
Q 37.25 6.984375 40.71875 11.8125 
Q 41.015625 12.109375 41.5 12.109375 
Q 42 12.109375 42.5 11.546875 
Q 43.015625 10.984375 43.015625 10.5 
Q 43.015625 10.109375 42.828125 9.90625 
Q 39.15625 4.78125 32.953125 1.828125 
Q 26.765625 -1.125 20.125 -1.125 
Q 15.328125 -1.125 11.671875 1.140625 
Q 8.015625 3.421875 6 7.21875 
Q 4 11.03125 4 15.828125 
Q 4 22.5625 7.765625 29.203125 
Q 11.53125 35.84375 17.78125 40.015625 
Q 24.03125 44.1875 30.90625 44.1875 
Q 35.40625 44.1875 38.984375 42.015625 
Q 42.578125 39.84375 42.578125 35.59375 
Q 42.578125 32.859375 40.984375 30.921875 
Q 39.40625 29 36.71875 29 
Q 35.109375 29 34 30 
Q 32.90625 31 32.90625 32.625 
Q 32.90625 34.96875 34.609375 36.625 
Q 36.328125 38.28125 38.625 38.28125 
L 38.8125 38.28125 
Q 37.640625 39.984375 35.421875 40.796875 
Q 33.203125 41.609375 30.8125 41.609375 
Q 24.953125 41.609375 20.546875 36.59375 
Q 16.15625 31.59375 13.9375 24.625 
Q 11.71875 17.671875 11.71875 11.921875 
" id="Cmmi10-63"/>
      <path d="M 10.59375 10.890625 
Q 10.59375 14.15625 11.46875 17.59375 
Q 12.359375 21.046875 13.9375 25.265625 
Q 15.53125 29.5 16.703125 32.625 
Q 18.015625 36.28125 18.015625 38.625 
Q 18.015625 41.609375 15.828125 41.609375 
Q 11.859375 41.609375 9.296875 37.53125 
Q 6.734375 33.453125 5.515625 28.421875 
Q 5.328125 27.78125 4.6875 27.78125 
L 3.515625 27.78125 
Q 2.6875 27.78125 2.6875 28.71875 
L 2.6875 29 
Q 4.296875 34.96875 7.609375 39.578125 
Q 10.9375 44.1875 16.015625 44.1875 
Q 19.578125 44.1875 22.046875 41.84375 
Q 24.515625 39.5 24.515625 35.890625 
Q 24.515625 34.03125 23.6875 31.984375 
Q 23.25 30.765625 21.6875 26.65625 
Q 20.125 22.5625 19.28125 19.875 
Q 18.453125 17.1875 17.921875 14.59375 
Q 17.390625 12.015625 17.390625 9.421875 
Q 17.390625 6.109375 18.796875 3.8125 
Q 20.21875 1.515625 23.390625 1.515625 
Q 29.78125 1.515625 34.625 9.421875 
Q 34.71875 9.8125 34.78125 10.171875 
Q 34.859375 10.546875 34.90625 10.890625 
L 42.09375 39.890625 
Q 42.4375 41.21875 43.65625 42.15625 
Q 44.875 43.109375 46.296875 43.109375 
Q 47.515625 43.109375 48.40625 42.328125 
Q 49.3125 41.546875 49.3125 40.28125 
Q 49.3125 39.703125 49.21875 39.5 
L 42 10.6875 
Q 41.3125 7.71875 41.3125 5.8125 
Q 41.3125 1.515625 44.1875 1.515625 
Q 47.40625 1.515625 49 5.484375 
Q 50.59375 9.46875 51.703125 14.703125 
Q 51.90625 15.28125 52.484375 15.28125 
L 53.71875 15.28125 
Q 54.109375 15.28125 54.34375 14.9375 
Q 54.59375 14.59375 54.59375 14.3125 
Q 53.515625 10.015625 52.515625 6.9375 
Q 51.515625 3.859375 49.359375 1.359375 
Q 47.21875 -1.125 44 -1.125 
Q 40.828125 -1.125 38.3125 0.609375 
Q 35.796875 2.34375 34.90625 5.328125 
Q 32.625 2.390625 29.59375 0.625 
Q 26.5625 -1.125 23.1875 -1.125 
Q 17.4375 -1.125 14.015625 2.015625 
Q 10.59375 5.171875 10.59375 10.890625 
" id="Cmmi10-75"/>
      <path d="M 8.40625 -14.3125 
Q 10.5 -17.921875 15.71875 -17.921875 
Q 20.453125 -17.921875 23.921875 -14.59375 
Q 27.390625 -11.28125 29.515625 -6.5625 
Q 31.640625 -1.859375 32.8125 3.078125 
Q 28.375 -1.125 23.1875 -1.125 
Q 19.234375 -1.125 16.453125 0.234375 
Q 13.671875 1.609375 12.125 4.3125 
Q 10.59375 7.03125 10.59375 10.890625 
Q 10.59375 14.15625 11.46875 17.59375 
Q 12.359375 21.046875 13.9375 25.265625 
Q 15.53125 29.5 16.703125 32.625 
Q 18.015625 36.28125 18.015625 38.625 
Q 18.015625 41.609375 15.828125 41.609375 
Q 11.859375 41.609375 9.296875 37.53125 
Q 6.734375 33.453125 5.515625 28.421875 
Q 5.328125 27.78125 4.6875 27.78125 
L 3.515625 27.78125 
Q 2.6875 27.78125 2.6875 28.71875 
L 2.6875 29 
Q 4.296875 34.96875 7.609375 39.578125 
Q 10.9375 44.1875 16.015625 44.1875 
Q 19.578125 44.1875 22.046875 41.84375 
Q 24.515625 39.5 24.515625 35.890625 
Q 24.515625 34.03125 23.6875 31.984375 
Q 23.25 30.765625 21.6875 26.65625 
Q 20.125 22.5625 19.28125 19.875 
Q 18.453125 17.1875 17.921875 14.59375 
Q 17.390625 12.015625 17.390625 9.421875 
Q 17.390625 6.109375 18.796875 3.8125 
Q 20.21875 1.515625 23.296875 1.515625 
Q 29.5 1.515625 34.421875 9.078125 
L 42 39.890625 
Q 42.328125 41.21875 43.546875 42.15625 
Q 44.78125 43.109375 46.1875 43.109375 
Q 47.40625 43.109375 48.3125 42.328125 
Q 49.21875 41.546875 49.21875 40.28125 
Q 49.21875 39.703125 49.125 39.5 
L 39.203125 -0.296875 
Q 37.890625 -5.421875 34.375 -10.109375 
Q 30.859375 -14.796875 25.90625 -17.65625 
Q 20.953125 -20.515625 15.578125 -20.515625 
Q 12.984375 -20.515625 10.4375 -19.5 
Q 7.90625 -18.5 6.34375 -16.5 
Q 4.78125 -14.5 4.78125 -11.8125 
Q 4.78125 -9.078125 6.390625 -7.078125 
Q 8.015625 -5.078125 10.6875 -5.078125 
Q 12.3125 -5.078125 13.40625 -6.078125 
Q 14.5 -7.078125 14.5 -8.6875 
Q 14.5 -10.984375 12.78125 -12.6875 
Q 11.078125 -14.40625 8.796875 -14.40625 
Q 8.6875 -14.359375 8.59375 -14.328125 
Q 8.5 -14.3125 8.40625 -14.3125 
" id="Cmmi10-79"/>
     </defs>
     <g style="fill:#276c8c;" transform="translate(217.98 468.6253125)scale(0.18 -0.18)">
      <use transform="translate(0.0 0.484375)" xlink:href="#Cmmi10-53"/>
      <use transform="translate(61.279296875 0.484375)" xlink:href="#Cmmi10-70"/>
      <use transform="translate(111.572265625 0.484375)" xlink:href="#Cmmi10-65"/>
      <use transform="translate(158.056640625 0.484375)" xlink:href="#Cmmi10-63"/>
      <use transform="translate(201.26953125 0.484375)" xlink:href="#Cmmi10-69"/>
      <use transform="translate(235.693359375 0.484375)" xlink:href="#Cmmi10-66"/>
      <use transform="translate(284.5703125 0.484375)" xlink:href="#Cmmi10-69"/>
      <use transform="translate(318.994140625 0.484375)" xlink:href="#Cmmi10-63"/>
      <use transform="translate(362.20703125 0.484375)" xlink:href="#ArialMT-20"/>
      <use transform="translate(389.990234375 0.484375)" xlink:href="#Cmmi10-67"/>
      <use transform="translate(437.6953125 0.484375)" xlink:href="#Cmmi10-72"/>
      <use transform="translate(482.8125 0.484375)" xlink:href="#Cmmi10-61"/>
      <use transform="translate(535.595703125 0.484375)" xlink:href="#Cmmi10-76"/>
      <use transform="translate(583.984375 0.484375)" xlink:href="#Cmmi10-69"/>
      <use transform="translate(618.408203125 0.484375)" xlink:href="#Cmmi10-74"/>
      <use transform="translate(654.4921875 0.484375)" xlink:href="#Cmmi10-79"/>
      <use transform="translate(703.515625 0.484375)" xlink:href="#ArialMT-20"/>
      <use transform="translate(731.298828125 0.484375)" xlink:href="#Cmmi10-6f"/>
      <use transform="translate(779.6875 0.484375)" xlink:href="#Cmmi10-66"/>
      <use transform="translate(828.564453125 0.484375)" xlink:href="#ArialMT-20"/>
      <use transform="translate(856.34765625 0.484375)" xlink:href="#Cmmi10-74"/>
      <use transform="translate(892.431640625 0.484375)" xlink:href="#Cmmi10-68"/>
      <use transform="translate(950.048828125 0.484375)" xlink:href="#Cmmi10-65"/>
      <use transform="translate(996.533203125 0.484375)" xlink:href="#ArialMT-20"/>
      <use transform="translate(1024.31640625 0.484375)" xlink:href="#Cmmi10-75"/>
      <use transform="translate(1081.494140625 0.484375)" xlink:href="#Cmmi10-72"/>
      <use transform="translate(1126.611328125 0.484375)" xlink:href="#Cmmi10-69"/>
      <use transform="translate(1161.03515625 0.484375)" xlink:href="#Cmmi10-6e"/>
      <use transform="translate(1221.044921875 0.484375)" xlink:href="#Cmmi10-65"/>
     </g>
    </g>
   </g>
   <g id="matplotlib.axis_2">
    <g id="ytick_1">
     <g id="line2d_16">
      <path clip-path="url(#p97b58da78a)" d="M 81 412.377678 
L 583.2 412.377678 
" style="fill:none;stroke:#ffffff;stroke-linecap:round;"/>
     </g>
     <g id="line2d_17">
      <g>
       <use style="fill:#555555;stroke:#555555;" x="81.0" xlink:href="#m825795fc65" y="412.377678015"/>
      </g>
     </g>
     <g id="line2d_18">
      <g>
       <use style="fill:#555555;stroke:#555555;" x="583.2" xlink:href="#m825795fc65" y="412.377678015"/>
      </g>
     </g>
     <g id="text_7">
      <!-- -0.4 -->
      <g style="fill:#555555;" transform="translate(56.7703125 414.962834265)scale(0.1 -0.1)">
       <use xlink:href="#ArialMT-2d"/>
       <use x="33.30078125" xlink:href="#ArialMT-30"/>
       <use x="88.916015625" xlink:href="#ArialMT-2e"/>
       <use x="116.69921875" xlink:href="#ArialMT-34"/>
      </g>
     </g>
    </g>
    <g id="ytick_2">
     <g id="line2d_19">
      <path clip-path="url(#p97b58da78a)" d="M 81 342.374042 
L 583.2 342.374042 
" style="fill:none;stroke:#ffffff;stroke-linecap:round;"/>
     </g>
     <g id="line2d_20">
      <g>
       <use style="fill:#555555;stroke:#555555;" x="81.0" xlink:href="#m825795fc65" y="342.374041651"/>
      </g>
     </g>
     <g id="line2d_21">
      <g>
       <use style="fill:#555555;stroke:#555555;" x="583.2" xlink:href="#m825795fc65" y="342.374041651"/>
      </g>
     </g>
     <g id="text_8">
      <!-- -0.2 -->
      <g style="fill:#555555;" transform="translate(56.7703125 344.959197901)scale(0.1 -0.1)">
       <use xlink:href="#ArialMT-2d"/>
       <use x="33.30078125" xlink:href="#ArialMT-30"/>
       <use x="88.916015625" xlink:href="#ArialMT-2e"/>
       <use x="116.69921875" xlink:href="#ArialMT-32"/>
      </g>
     </g>
    </g>
    <g id="ytick_3">
     <g id="line2d_22">
      <path clip-path="url(#p97b58da78a)" d="M 81 272.370405 
L 583.2 272.370405 
" style="fill:none;stroke:#ffffff;stroke-linecap:round;"/>
     </g>
     <g id="line2d_23">
      <g>
       <use style="fill:#555555;stroke:#555555;" x="81.0" xlink:href="#m825795fc65" y="272.370405288"/>
      </g>
     </g>
     <g id="line2d_24">
      <g>
       <use style="fill:#555555;stroke:#555555;" x="583.2" xlink:href="#m825795fc65" y="272.370405288"/>
      </g>
     </g>
     <g id="text_9">
      <!-- 0.0 -->
      <g style="fill:#555555;" transform="translate(60.1 274.955561538)scale(0.1 -0.1)">
       <use xlink:href="#ArialMT-30"/>
       <use x="55.615234375" xlink:href="#ArialMT-2e"/>
       <use x="83.3984375" xlink:href="#ArialMT-30"/>
      </g>
     </g>
    </g>
    <g id="ytick_4">
     <g id="line2d_25">
      <path clip-path="url(#p97b58da78a)" d="M 81 202.366769 
L 583.2 202.366769 
" style="fill:none;stroke:#ffffff;stroke-linecap:round;"/>
     </g>
     <g id="line2d_26">
      <g>
       <use style="fill:#555555;stroke:#555555;" x="81.0" xlink:href="#m825795fc65" y="202.366768924"/>
      </g>
     </g>
     <g id="line2d_27">
      <g>
       <use style="fill:#555555;stroke:#555555;" x="583.2" xlink:href="#m825795fc65" y="202.366768924"/>
      </g>
     </g>
     <g id="text_10">
      <!-- 0.2 -->
      <g style="fill:#555555;" transform="translate(60.1 204.951925174)scale(0.1 -0.1)">
       <use xlink:href="#ArialMT-30"/>
       <use x="55.615234375" xlink:href="#ArialMT-2e"/>
       <use x="83.3984375" xlink:href="#ArialMT-32"/>
      </g>
     </g>
    </g>
    <g id="ytick_5">
     <g id="line2d_28">
      <path clip-path="url(#p97b58da78a)" d="M 81 132.363133 
L 583.2 132.363133 
" style="fill:none;stroke:#ffffff;stroke-linecap:round;"/>
     </g>
     <g id="line2d_29">
      <g>
       <use style="fill:#555555;stroke:#555555;" x="81.0" xlink:href="#m825795fc65" y="132.36313256"/>
      </g>
     </g>
     <g id="line2d_30">
      <g>
       <use style="fill:#555555;stroke:#555555;" x="583.2" xlink:href="#m825795fc65" y="132.36313256"/>
      </g>
     </g>
     <g id="text_11">
      <!-- 0.4 -->
      <g style="fill:#555555;" transform="translate(60.1 134.94828881)scale(0.1 -0.1)">
       <use xlink:href="#ArialMT-30"/>
       <use x="55.615234375" xlink:href="#ArialMT-2e"/>
       <use x="83.3984375" xlink:href="#ArialMT-34"/>
      </g>
     </g>
    </g>
    <g id="ytick_6">
     <g id="line2d_31">
      <path clip-path="url(#p97b58da78a)" d="M 81 62.359496 
L 583.2 62.359496 
" style="fill:none;stroke:#ffffff;stroke-linecap:round;"/>
     </g>
     <g id="line2d_32">
      <g>
       <use style="fill:#555555;stroke:#555555;" x="81.0" xlink:href="#m825795fc65" y="62.3594961968"/>
      </g>
     </g>
     <g id="line2d_33">
      <g>
       <use style="fill:#555555;stroke:#555555;" x="583.2" xlink:href="#m825795fc65" y="62.3594961968"/>
      </g>
     </g>
     <g id="text_12">
      <!-- 0.6 -->
      <g style="fill:#555555;" transform="translate(60.1 64.9446524468)scale(0.1 -0.1)">
       <use xlink:href="#ArialMT-30"/>
       <use x="55.615234375" xlink:href="#ArialMT-2e"/>
       <use x="83.3984375" xlink:href="#ArialMT-36"/>
      </g>
     </g>
    </g>
    <g id="text_13">
     <!-- $Urea$ $concentration$ $per$ $litre$ -->
     <defs>
      <path d="M 4.390625 8.109375 
Q 4.390625 8.40625 4.46875 8.984375 
Q 4.546875 9.578125 4.609375 10.125 
Q 4.6875 10.6875 4.6875 10.984375 
L 17.09375 60.5 
Q 17.484375 62.203125 17.578125 63.1875 
Q 17.578125 64.796875 11.078125 64.796875 
Q 10.109375 64.796875 10.109375 66.109375 
Q 10.15625 66.359375 10.328125 66.984375 
Q 10.5 67.625 10.765625 67.96875 
Q 11.03125 68.3125 11.53125 68.3125 
L 25 69.390625 
Q 26.21875 69.390625 26.21875 68.109375 
L 11.8125 10.59375 
Q 11.078125 8.984375 11.078125 5.8125 
Q 11.078125 1.515625 14.015625 1.515625 
Q 17.09375 1.515625 18.625 5.34375 
Q 20.171875 9.1875 21.390625 14.703125 
Q 21.578125 15.28125 22.21875 15.28125 
L 23.390625 15.28125 
Q 23.78125 15.28125 24.046875 14.96875 
Q 24.3125 14.65625 24.3125 14.3125 
Q 23.140625 9.46875 22.1875 6.65625 
Q 21.234375 3.859375 19.140625 1.359375 
Q 17.046875 -1.125 13.8125 -1.125 
Q 9.8125 -1.125 7.09375 1.453125 
Q 4.390625 4.046875 4.390625 8.109375 
" id="Cmmi10-6c"/>
      <path d="M 14.703125 13.921875 
Q 14.703125 10.25 16.140625 7.375 
Q 17.578125 4.5 20.3125 2.90625 
Q 23.046875 1.3125 26.703125 1.3125 
Q 31 1.3125 35.078125 3.0625 
Q 39.15625 4.828125 42.421875 7.953125 
Q 45.703125 11.078125 48.015625 15.078125 
Q 50.34375 19.09375 51.3125 23 
L 60.296875 59.078125 
Q 60.5 60.15625 60.5 60.59375 
Q 60.5 64.796875 52.78125 64.796875 
Q 51.8125 64.796875 51.8125 66.109375 
Q 52.15625 67.390625 52.34375 67.84375 
Q 52.546875 68.3125 53.515625 68.3125 
L 75.203125 68.3125 
Q 75.640625 68.3125 75.921875 67.875 
Q 76.21875 67.4375 76.21875 67 
Q 76.21875 66.9375 76.015625 66.234375 
Q 75.828125 65.53125 75.5625 65.15625 
Q 75.296875 64.796875 74.90625 64.796875 
Q 65.328125 64.796875 63.8125 58.6875 
L 54.78125 22.609375 
Q 53.65625 17.921875 51 13.5 
Q 48.34375 9.078125 44.453125 5.484375 
Q 40.578125 1.90625 35.90625 -0.140625 
Q 31.25 -2.203125 26.421875 -2.203125 
Q 20.90625 -2.203125 16.328125 0.21875 
Q 11.765625 2.640625 9.171875 6.984375 
Q 6.59375 11.328125 6.59375 17 
Q 6.59375 20.265625 7.328125 23 
L 17 61.8125 
Q 17.1875 62.796875 17.1875 63.1875 
Q 17.1875 64.265625 16.015625 64.40625 
Q 14.109375 64.796875 8.796875 64.796875 
Q 7.8125 64.796875 7.8125 66.109375 
Q 8.15625 67.390625 8.34375 67.84375 
Q 8.546875 68.3125 9.515625 68.3125 
L 36.375 68.3125 
Q 37.40625 68.3125 37.40625 67 
Q 37.359375 66.75 37.203125 66.15625 
Q 37.0625 65.578125 36.8125 65.1875 
Q 36.578125 64.796875 36.078125 64.796875 
Q 29.984375 64.796875 27.59375 64.109375 
Q 26.265625 63.625 25.6875 61.375 
L 16.015625 22.609375 
Q 14.703125 17.328125 14.703125 13.921875 
" id="Cmmi10-55"/>
     </defs>
     <g style="fill:#276c8c;" transform="translate(48.1703125 354.15)rotate(-90.0)scale(0.18 -0.18)">
      <use transform="translate(0.0 0.609375)" xlink:href="#Cmmi10-55"/>
      <use transform="translate(68.212890625 0.609375)" xlink:href="#Cmmi10-72"/>
      <use transform="translate(113.330078125 0.609375)" xlink:href="#Cmmi10-65"/>
      <use transform="translate(159.814453125 0.609375)" xlink:href="#Cmmi10-61"/>
      <use transform="translate(212.59765625 0.609375)" xlink:href="#ArialMT-20"/>
      <use transform="translate(240.380859375 0.609375)" xlink:href="#Cmmi10-63"/>
      <use transform="translate(283.59375 0.609375)" xlink:href="#Cmmi10-6f"/>
      <use transform="translate(331.982421875 0.609375)" xlink:href="#Cmmi10-6e"/>
      <use transform="translate(391.9921875 0.609375)" xlink:href="#Cmmi10-63"/>
      <use transform="translate(435.205078125 0.609375)" xlink:href="#Cmmi10-65"/>
      <use transform="translate(481.689453125 0.609375)" xlink:href="#Cmmi10-6e"/>
      <use transform="translate(541.69921875 0.609375)" xlink:href="#Cmmi10-74"/>
      <use transform="translate(577.783203125 0.609375)" xlink:href="#Cmmi10-72"/>
      <use transform="translate(622.900390625 0.609375)" xlink:href="#Cmmi10-61"/>
      <use transform="translate(675.68359375 0.609375)" xlink:href="#Cmmi10-74"/>
      <use transform="translate(711.767578125 0.609375)" xlink:href="#Cmmi10-69"/>
      <use transform="translate(746.19140625 0.609375)" xlink:href="#Cmmi10-6f"/>
      <use transform="translate(794.580078125 0.609375)" xlink:href="#Cmmi10-6e"/>
      <use transform="translate(854.58984375 0.609375)" xlink:href="#ArialMT-20"/>
      <use transform="translate(882.373046875 0.609375)" xlink:href="#Cmmi10-70"/>
      <use transform="translate(932.666015625 0.609375)" xlink:href="#Cmmi10-65"/>
      <use transform="translate(979.150390625 0.609375)" xlink:href="#Cmmi10-72"/>
      <use transform="translate(1024.267578125 0.609375)" xlink:href="#ArialMT-20"/>
      <use transform="translate(1052.05078125 0.609375)" xlink:href="#Cmmi10-6c"/>
      <use transform="translate(1081.8359375 0.609375)" xlink:href="#Cmmi10-69"/>
      <use transform="translate(1116.259765625 0.609375)" xlink:href="#Cmmi10-74"/>
      <use transform="translate(1152.34375 0.609375)" xlink:href="#Cmmi10-72"/>
      <use transform="translate(1197.4609375 0.609375)" xlink:href="#Cmmi10-65"/>
     </g>
    </g>
   </g>
   <g id="PathCollection_1">
    <defs>
     <path d="M -2.705981 -6.532815 
L -6.532815 -2.705981 
L -6.532815 2.705981 
L -2.705981 6.532815 
L 2.705981 6.532815 
L 6.532815 2.705981 
L 6.532815 -2.705981 
L 2.705981 -6.532815 
z
" id="C0_0_b72b70d425"/>
    </defs>
    <g clip-path="url(#p97b58da78a)">
     <use style="fill:#0000ff;stroke:#f779cf;stroke-width:0.5;" x="253.261695447" xlink:href="#C0_0_b72b70d425" y="253.092205663"/>
    </g>
    <g clip-path="url(#p97b58da78a)">
     <use style="fill:#0000ff;stroke:#f779cf;stroke-width:0.5;" x="124.253560725" xlink:href="#C0_0_b72b70d425" y="364.983263785"/>
    </g>
    <g clip-path="url(#p97b58da78a)">
     <use style="fill:#0000ff;stroke:#f779cf;stroke-width:0.5;" x="167.256272299" xlink:href="#C0_0_b72b70d425" y="294.405827124"/>
    </g>
    <g clip-path="url(#p97b58da78a)">
     <use style="fill:#0000ff;stroke:#f779cf;stroke-width:0.5;" x="81.2508491508" xlink:href="#C0_0_b72b70d425" y="370.721266766"/>
    </g>
    <g clip-path="url(#p97b58da78a)">
     <use style="fill:#0000ff;stroke:#f779cf;stroke-width:0.5;" x="296.264407022" xlink:href="#C0_0_b72b70d425" y="278.339418778"/>
    </g>
    <g clip-path="url(#p97b58da78a)">
     <use style="fill:#0000ff;stroke:#f779cf;stroke-width:0.5;" x="181.590509491" xlink:href="#C0_0_b72b70d425" y="311.046035768"/>
    </g>
    <g clip-path="url(#p97b58da78a)">
     <use style="fill:#0000ff;stroke:#f779cf;stroke-width:0.5;" x="425.272541744" xlink:href="#C0_0_b72b70d425" y="107.346929955"/>
    </g>
    <g clip-path="url(#p97b58da78a)">
     <use style="fill:#0000ff;stroke:#f779cf;stroke-width:0.5;" x="224.593221065" xlink:href="#C0_0_b72b70d425" y="325.391043219"/>
    </g>
    <g clip-path="url(#p97b58da78a)">
     <use style="fill:#0000ff;stroke:#f779cf;stroke-width:0.5;" x="310.598644213" xlink:href="#C0_0_b72b70d425" y="203.74538003"/>
    </g>
    <g clip-path="url(#p97b58da78a)">
     <use style="fill:#0000ff;stroke:#f779cf;stroke-width:0.5;" x="167.256272299" xlink:href="#C0_0_b72b70d425" y="335.719448584"/>
    </g>
    <g clip-path="url(#p97b58da78a)">
     <use style="fill:#0000ff;stroke:#f779cf;stroke-width:0.5;" x="367.935592978" xlink:href="#C0_0_b72b70d425" y="165.874560358"/>
    </g>
    <g clip-path="url(#p97b58da78a)">
     <use style="fill:#0000ff;stroke:#f779cf;stroke-width:0.5;" x="95.5850863422" xlink:href="#C0_0_b72b70d425" y="386.213874814"/>
    </g>
    <g clip-path="url(#p97b58da78a)">
     <use style="fill:#0000ff;stroke:#f779cf;stroke-width:0.5;" x="109.919323534" xlink:href="#C0_0_b72b70d425" y="338.588450075"/>
    </g>
    <g clip-path="url(#p97b58da78a)">
     <use style="fill:#0000ff;stroke:#f779cf;stroke-width:0.5;" x="167.256272299" xlink:href="#C0_0_b72b70d425" y="330.555245902"/>
    </g>
    <g clip-path="url(#p97b58da78a)">
     <use style="fill:#0000ff;stroke:#f779cf;stroke-width:0.5;" x="267.595932639" xlink:href="#C0_0_b72b70d425" y="259.97780924"/>
    </g>
    <g clip-path="url(#p97b58da78a)">
     <use style="fill:#0000ff;stroke:#f779cf;stroke-width:0.5;" x="109.919323534" xlink:href="#C0_0_b72b70d425" y="346.621654247"/>
    </g>
    <g clip-path="url(#p97b58da78a)">
     <use style="fill:#0000ff;stroke:#f779cf;stroke-width:0.5;" x="367.935592978" xlink:href="#C0_0_b72b70d425" y="196.285976155"/>
    </g>
    <g clip-path="url(#p97b58da78a)">
     <use style="fill:#0000ff;stroke:#f779cf;stroke-width:0.5;" x="124.253560725" xlink:href="#C0_0_b72b70d425" y="368.426065574"/>
    </g>
    <g clip-path="url(#p97b58da78a)">
     <use style="fill:#0000ff;stroke:#f779cf;stroke-width:0.5;" x="210.258983873" xlink:href="#C0_0_b72b70d425" y="300.143830104"/>
    </g>
    <g clip-path="url(#p97b58da78a)">
     <use style="fill:#0000ff;stroke:#f779cf;stroke-width:0.5;" x="353.601355787" xlink:href="#C0_0_b72b70d425" y="204.892980626"/>
    </g>
    <g clip-path="url(#p97b58da78a)">
     <use style="fill:#0000ff;stroke:#f779cf;stroke-width:0.5;" x="281.93016983" xlink:href="#C0_0_b72b70d425" y="308.750834575"/>
    </g>
    <g clip-path="url(#p97b58da78a)">
     <use style="fill:#0000ff;stroke:#f779cf;stroke-width:0.5;" x="210.258983873" xlink:href="#C0_0_b72b70d425" y="373.016467958"/>
    </g>
    <g clip-path="url(#p97b58da78a)">
     <use style="fill:#0000ff;stroke:#f779cf;stroke-width:0.5;" x="296.264407022" xlink:href="#C0_0_b72b70d425" y="180.793368107"/>
    </g>
    <g clip-path="url(#p97b58da78a)">
     <use style="fill:#0000ff;stroke:#f779cf;stroke-width:0.5;" x="339.267118596" xlink:href="#C0_0_b72b70d425" y="285.798822653"/>
    </g>
    <g clip-path="url(#p97b58da78a)">
     <use style="fill:#0000ff;stroke:#f779cf;stroke-width:0.5;" x="253.261695447" xlink:href="#C0_0_b72b70d425" y="268.011013413"/>
    </g>
    <g clip-path="url(#p97b58da78a)">
     <use style="fill:#0000ff;stroke:#f779cf;stroke-width:0.5;" x="253.261695447" xlink:href="#C0_0_b72b70d425" y="379.902071535"/>
    </g>
    <g clip-path="url(#p97b58da78a)">
     <use style="fill:#0000ff;stroke:#f779cf;stroke-width:0.5;" x="152.922035108" xlink:href="#C0_0_b72b70d425" y="381.623472429"/>
    </g>
    <g clip-path="url(#p97b58da78a)">
     <use style="fill:#0000ff;stroke:#f779cf;stroke-width:0.5;" x="124.253560725" xlink:href="#C0_0_b72b70d425" y="331.702846498"/>
    </g>
    <g clip-path="url(#p97b58da78a)">
     <use style="fill:#0000ff;stroke:#f779cf;stroke-width:0.5;" x="296.264407022" xlink:href="#C0_0_b72b70d425" y="222.680789866"/>
    </g>
    <g clip-path="url(#p97b58da78a)">
     <use style="fill:#0000ff;stroke:#f779cf;stroke-width:0.5;" x="253.261695447" xlink:href="#C0_0_b72b70d425" y="261.125409836"/>
    </g>
    <g clip-path="url(#p97b58da78a)">
     <use style="fill:#0000ff;stroke:#f779cf;stroke-width:0.5;" x="281.93016983" xlink:href="#C0_0_b72b70d425" y="252.518405365"/>
    </g>
    <g clip-path="url(#p97b58da78a)">
     <use style="fill:#0000ff;stroke:#f779cf;stroke-width:0.5;" x="253.261695447" xlink:href="#C0_0_b72b70d425" y="241.042399404"/>
    </g>
    <g clip-path="url(#p97b58da78a)">
     <use style="fill:#0000ff;stroke:#f779cf;stroke-width:0.5;" x="124.253560725" xlink:href="#C0_0_b72b70d425" y="348.343055142"/>
    </g>
    <g clip-path="url(#p97b58da78a)">
     <use style="fill:#0000ff;stroke:#f779cf;stroke-width:0.5;" x="339.267118596" xlink:href="#C0_0_b72b70d425" y="215.221385991"/>
    </g>
    <g clip-path="url(#p97b58da78a)">
     <use style="fill:#0000ff;stroke:#f779cf;stroke-width:0.5;" x="296.264407022" xlink:href="#C0_0_b72b70d425" y="233.582995529"/>
    </g>
    <g clip-path="url(#p97b58da78a)">
     <use style="fill:#0000ff;stroke:#f779cf;stroke-width:0.5;" x="124.253560725" xlink:href="#C0_0_b72b70d425" y="351.212056632"/>
    </g>
    <g clip-path="url(#p97b58da78a)">
     <use style="fill:#0000ff;stroke:#f779cf;stroke-width:0.5;" x="296.264407022" xlink:href="#C0_0_b72b70d425" y="273.749016393"/>
    </g>
    <g clip-path="url(#p97b58da78a)">
     <use style="fill:#0000ff;stroke:#f779cf;stroke-width:0.5;" x="138.587797916" xlink:href="#C0_0_b72b70d425" y="367.278464978"/>
    </g>
    <g clip-path="url(#p97b58da78a)">
     <use style="fill:#0000ff;stroke:#f779cf;stroke-width:0.5;" x="267.595932639" xlink:href="#C0_0_b72b70d425" y="244.485201192"/>
    </g>
    <g clip-path="url(#p97b58da78a)">
     <use style="fill:#0000ff;stroke:#f779cf;stroke-width:0.5;" x="310.598644213" xlink:href="#C0_0_b72b70d425" y="202.023979136"/>
    </g>
    <g clip-path="url(#p97b58da78a)">
     <use style="fill:#0000ff;stroke:#f779cf;stroke-width:0.5;" x="138.587797916" xlink:href="#C0_0_b72b70d425" y="363.261862891"/>
    </g>
    <g clip-path="url(#p97b58da78a)">
     <use style="fill:#0000ff;stroke:#f779cf;stroke-width:0.5;" x="224.593221065" xlink:href="#C0_0_b72b70d425" y="315.636438152"/>
    </g>
    <g clip-path="url(#p97b58da78a)">
     <use style="fill:#0000ff;stroke:#f779cf;stroke-width:0.5;" x="152.922035108" xlink:href="#C0_0_b72b70d425" y="350.638256334"/>
    </g>
    <g clip-path="url(#p97b58da78a)">
     <use style="fill:#0000ff;stroke:#f779cf;stroke-width:0.5;" x="296.264407022" xlink:href="#C0_0_b72b70d425" y="246.206602086"/>
    </g>
    <g clip-path="url(#p97b58da78a)">
     <use style="fill:#00ff80;stroke:#f779cf;stroke-width:0.5;" x="310.598644213" xlink:href="#C0_0_b72b70d425" y="236.451997019"/>
    </g>
    <g clip-path="url(#p97b58da78a)">
     <use style="fill:#00ff80;stroke:#f779cf;stroke-width:0.5;" x="353.601355787" xlink:href="#C0_0_b72b70d425" y="219.811788376"/>
    </g>
    <g clip-path="url(#p97b58da78a)">
     <use style="fill:#00ff80;stroke:#f779cf;stroke-width:0.5;" x="353.601355787" xlink:href="#C0_0_b72b70d425" y="216.368986587"/>
    </g>
    <g clip-path="url(#p97b58da78a)">
     <use style="fill:#00ff80;stroke:#f779cf;stroke-width:0.5;" x="310.598644213" xlink:href="#C0_0_b72b70d425" y="249.649403875"/>
    </g>
    <g clip-path="url(#p97b58da78a)">
     <use style="fill:#00ff80;stroke:#f779cf;stroke-width:0.5;" x="353.601355787" xlink:href="#C0_0_b72b70d425" y="214.073785395"/>
    </g>
    <g clip-path="url(#p97b58da78a)">
     <use style="fill:#00ff80;stroke:#f779cf;stroke-width:0.5;" x="382.26983017" xlink:href="#C0_0_b72b70d425" y="250.223204173"/>
    </g>
    <g clip-path="url(#p97b58da78a)">
     <use style="fill:#00ff80;stroke:#f779cf;stroke-width:0.5;" x="195.924746682" xlink:href="#C0_0_b72b70d425" y="309.898435171"/>
    </g>
    <g clip-path="url(#p97b58da78a)">
     <use style="fill:#00ff80;stroke:#f779cf;stroke-width:0.5;" x="152.922035108" xlink:href="#C0_0_b72b70d425" y="315.062637854"/>
    </g>
    <g clip-path="url(#p97b58da78a)">
     <use style="fill:#00ff80;stroke:#f779cf;stroke-width:0.5;" x="167.256272299" xlink:href="#C0_0_b72b70d425" y="351.78585693"/>
    </g>
    <g clip-path="url(#p97b58da78a)">
     <use style="fill:#00ff80;stroke:#f779cf;stroke-width:0.5;" x="167.256272299" xlink:href="#C0_0_b72b70d425" y="331.702846498"/>
    </g>
    <g clip-path="url(#p97b58da78a)">
     <use style="fill:#00ff80;stroke:#f779cf;stroke-width:0.5;" x="453.941016127" xlink:href="#C0_0_b72b70d425" y="126.856140089"/>
    </g>
    <g clip-path="url(#p97b58da78a)">
     <use style="fill:#00ff80;stroke:#f779cf;stroke-width:0.5;" x="296.264407022" xlink:href="#C0_0_b72b70d425" y="301.2914307"/>
    </g>
    <g clip-path="url(#p97b58da78a)">
     <use style="fill:#00ff80;stroke:#f779cf;stroke-width:0.5;" x="582.949150849" xlink:href="#C0_0_b72b70d425" y="144.070149031"/>
    </g>
    <g clip-path="url(#p97b58da78a)">
     <use style="fill:#00ff80;stroke:#f779cf;stroke-width:0.5;" x="310.598644213" xlink:href="#C0_0_b72b70d425" y="294.405827124"/>
    </g>
    <g clip-path="url(#p97b58da78a)">
     <use style="fill:#00ff80;stroke:#f779cf;stroke-width:0.5;" x="367.935592978" xlink:href="#C0_0_b72b70d425" y="202.023979136"/>
    </g>
    <g clip-path="url(#p97b58da78a)">
     <use style="fill:#00ff80;stroke:#f779cf;stroke-width:0.5;" x="382.26983017" xlink:href="#C0_0_b72b70d425" y="151.529552906"/>
    </g>
    <g clip-path="url(#p97b58da78a)">
     <use style="fill:#00ff80;stroke:#f779cf;stroke-width:0.5;" x="496.943727701" xlink:href="#C0_0_b72b70d425" y="67.1809090909"/>
    </g>
    <g clip-path="url(#p97b58da78a)">
     <use style="fill:#00ff80;stroke:#f779cf;stroke-width:0.5;" x="482.609490509" xlink:href="#C0_0_b72b70d425" y="176.202965723"/>
    </g>
    <g clip-path="url(#p97b58da78a)">
     <use style="fill:#00ff80;stroke:#f779cf;stroke-width:0.5;" x="224.593221065" xlink:href="#C0_0_b72b70d425" y="309.324634873"/>
    </g>
    <g clip-path="url(#p97b58da78a)">
     <use style="fill:#00ff80;stroke:#f779cf;stroke-width:0.5;" x="195.924746682" xlink:href="#C0_0_b72b70d425" y="317.357839046"/>
    </g>
    <g clip-path="url(#p97b58da78a)">
     <use style="fill:#00ff80;stroke:#f779cf;stroke-width:0.5;" x="210.258983873" xlink:href="#C0_0_b72b70d425" y="328.833845007"/>
    </g>
    <g clip-path="url(#p97b58da78a)">
     <use style="fill:#00ff80;stroke:#f779cf;stroke-width:0.5;" x="181.590509491" xlink:href="#C0_0_b72b70d425" y="342.031251863"/>
    </g>
    <g clip-path="url(#p97b58da78a)">
     <use style="fill:#00ff80;stroke:#f779cf;stroke-width:0.5;" x="367.935592978" xlink:href="#C0_0_b72b70d425" y="195.712175857"/>
    </g>
    <g clip-path="url(#p97b58da78a)">
     <use style="fill:#00ff80;stroke:#f779cf;stroke-width:0.5;" x="382.26983017" xlink:href="#C0_0_b72b70d425" y="160.710357675"/>
    </g>
    <g clip-path="url(#p97b58da78a)">
     <use style="fill:#00ff80;stroke:#f779cf;stroke-width:0.5;" x="410.938304553" xlink:href="#C0_0_b72b70d425" y="417.199090909"/>
    </g>
    <g clip-path="url(#p97b58da78a)">
     <use style="fill:#00ff80;stroke:#f779cf;stroke-width:0.5;" x="396.604067361" xlink:href="#C0_0_b72b70d425" y="196.285976155"/>
    </g>
    <g clip-path="url(#p97b58da78a)">
     <use style="fill:#00ff80;stroke:#f779cf;stroke-width:0.5;" x="267.595932639" xlink:href="#C0_0_b72b70d425" y="266.863412817"/>
    </g>
    <g clip-path="url(#p97b58da78a)">
     <use style="fill:#00ff80;stroke:#f779cf;stroke-width:0.5;" x="324.932881404" xlink:href="#C0_0_b72b70d425" y="183.0885693"/>
    </g>
    <g clip-path="url(#p97b58da78a)">
     <use style="fill:#00ff80;stroke:#f779cf;stroke-width:0.5;" x="367.935592978" xlink:href="#C0_0_b72b70d425" y="250.223204173"/>
    </g>
    <g clip-path="url(#p97b58da78a)">
     <use style="fill:#00ff80;stroke:#f779cf;stroke-width:0.5;" x="253.261695447" xlink:href="#C0_0_b72b70d425" y="311.046035768"/>
    </g>
    <g clip-path="url(#p97b58da78a)">
     <use style="fill:#00ff80;stroke:#f779cf;stroke-width:0.5;" x="353.601355787" xlink:href="#C0_0_b72b70d425" y="196.859776453"/>
    </g>
    <g clip-path="url(#p97b58da78a)">
     <use style="fill:#00ff80;stroke:#f779cf;stroke-width:0.5;" x="238.927458256" xlink:href="#C0_0_b72b70d425" y="276.618017884"/>
    </g>
    <g clip-path="url(#p97b58da78a)">
     <use style="fill:#00ff80;stroke:#f779cf;stroke-width:0.5;" x="224.593221065" xlink:href="#C0_0_b72b70d425" y="320.800640835"/>
    </g>
   </g>
   <g id="line2d_34">
    <path clip-path="url(#p97b58da78a)" d="M 253.261695 281.059871 
L 124.253561 357.285182 
L 167.256272 331.876745 
L 81.250849 382.693619 
L 296.264407 255.651434 
L 181.590509 323.407266 
L 425.272542 179.426123 
L 224.593221 297.998829 
L 310.598644 247.181955 
L 167.256272 331.876745 
L 367.935593 213.304039 
L 95.585086 374.22414 
L 109.919324 365.754661 
L 167.256272 331.876745 
L 267.595933 272.590392 
L 109.919324 365.754661 
L 367.935593 213.304039 
L 124.253561 357.285182 
L 210.258984 306.468308 
L 353.601356 221.773518 
L 281.93017 264.120913 
L 210.258984 306.468308 
L 296.264407 255.651434 
L 339.267119 230.242997 
L 253.261695 281.059871 
L 253.261695 281.059871 
L 152.922035 340.346224 
L 124.253561 357.285182 
L 296.264407 255.651434 
L 253.261695 281.059871 
L 281.93017 264.120913 
L 253.261695 281.059871 
L 124.253561 357.285182 
L 339.267119 230.242997 
L 296.264407 255.651434 
L 124.253561 357.285182 
L 296.264407 255.651434 
L 138.587798 348.815703 
L 267.595933 272.590392 
L 310.598644 247.181955 
L 138.587798 348.815703 
L 224.593221 297.998829 
L 152.922035 340.346224 
L 296.264407 255.651434 
L 310.598644 247.181955 
L 353.601356 221.773518 
L 353.601356 221.773518 
L 310.598644 247.181955 
L 353.601356 221.773518 
L 382.26983 204.83456 
L 195.924747 314.937787 
L 152.922035 340.346224 
L 167.256272 331.876745 
L 167.256272 331.876745 
L 453.941016 162.487165 
L 296.264407 255.651434 
L 582.949151 86.261854 
L 310.598644 247.181955 
L 367.935593 213.304039 
L 382.26983 204.83456 
L 496.943728 137.078728 
L 482.609491 145.548207 
L 224.593221 297.998829 
L 195.924747 314.937787 
L 210.258984 306.468308 
L 181.590509 323.407266 
L 367.935593 213.304039 
L 382.26983 204.83456 
L 410.938305 187.895602 
L 396.604067 196.365081 
L 267.595933 272.590392 
L 324.932881 238.712476 
L 367.935593 213.304039 
L 253.261695 281.059871 
L 353.601356 221.773518 
L 238.927458 289.52935 
L 224.593221 297.998829 
" style="fill:none;stroke:#b75d69;stroke-linecap:round;stroke-width:5.0;"/>
   </g>
   <g id="patch_3">
    <path d="M 81 434.7 
L 81 49.68 
" style="fill:none;stroke:#ffffff;stroke-linecap:square;stroke-linejoin:miter;"/>
   </g>
   <g id="patch_4">
    <path d="M 81 49.68 
L 583.2 49.68 
" style="fill:none;stroke:#ffffff;stroke-linecap:square;stroke-linejoin:miter;"/>
   </g>
   <g id="patch_5">
    <path d="M 583.2 434.7 
L 583.2 49.68 
" style="fill:none;stroke:#ffffff;stroke-linecap:square;stroke-linejoin:miter;"/>
   </g>
   <g id="patch_6">
    <path d="M 81 434.7 
L 583.2 434.7 
" style="fill:none;stroke:#ffffff;stroke-linecap:square;stroke-linejoin:miter;"/>
   </g>
   <g id="text_14">
    <!-- $Linear$ $regression$ $between$ $gravity$ $and$ $urine$ -->
    <defs>
     <path d="M 17.390625 -1.125 
Q 11.078125 -1.125 7.4375 3.640625 
Q 3.8125 8.40625 3.8125 14.890625 
Q 3.8125 21.296875 7.125 28.171875 
Q 10.453125 35.0625 16.09375 39.625 
Q 21.734375 44.1875 28.21875 44.1875 
Q 31.15625 44.1875 33.515625 42.546875 
Q 35.890625 40.921875 37.203125 38.1875 
L 42.828125 60.5 
Q 43.21875 62.203125 43.3125 63.1875 
Q 43.3125 64.796875 36.8125 64.796875 
Q 35.796875 64.796875 35.796875 66.109375 
Q 35.84375 66.359375 36.015625 66.984375 
Q 36.1875 67.625 36.453125 67.96875 
Q 36.71875 68.3125 37.203125 68.3125 
L 50.6875 69.390625 
Q 51.90625 69.390625 51.90625 68.109375 
L 37.5 10.59375 
Q 36.8125 8.9375 36.8125 5.8125 
Q 36.8125 1.515625 39.703125 1.515625 
Q 42.828125 1.515625 44.453125 5.484375 
Q 46.09375 9.46875 47.21875 14.703125 
Q 47.40625 15.28125 48 15.28125 
L 49.21875 15.28125 
Q 49.609375 15.28125 49.84375 14.9375 
Q 50.09375 14.59375 50.09375 14.3125 
Q 48.34375 7.328125 46.265625 3.09375 
Q 44.1875 -1.125 39.5 -1.125 
Q 36.140625 -1.125 33.546875 0.84375 
Q 30.953125 2.828125 30.328125 6.109375 
Q 23.875 -1.125 17.390625 -1.125 
M 17.484375 1.515625 
Q 21.09375 1.515625 24.484375 4.21875 
Q 27.875 6.9375 30.328125 10.59375 
Q 30.421875 10.6875 30.421875 10.984375 
L 35.890625 33.015625 
Q 35.296875 36.53125 33.296875 39.0625 
Q 31.296875 41.609375 27.984375 41.609375 
Q 24.609375 41.609375 21.703125 38.84375 
Q 18.796875 36.078125 16.796875 32.328125 
Q 14.84375 28.328125 13.0625 21.34375 
Q 11.28125 14.359375 11.28125 10.5 
Q 11.28125 7.03125 12.765625 4.265625 
Q 14.265625 1.515625 17.484375 1.515625 
" id="Cmmi10-64"/>
     <path d="M 10.796875 11.625 
Q 10.796875 13.71875 11.359375 16.453125 
Q 11.921875 19.1875 12.59375 21.3125 
Q 13.28125 23.4375 14.90625 27.828125 
Q 16.546875 32.234375 16.703125 32.625 
Q 18.015625 36.28125 18.015625 38.625 
Q 18.015625 41.609375 15.828125 41.609375 
Q 11.859375 41.609375 9.296875 37.53125 
Q 6.734375 33.453125 5.515625 28.421875 
Q 5.328125 27.78125 4.6875 27.78125 
L 3.515625 27.78125 
Q 2.6875 27.78125 2.6875 28.71875 
L 2.6875 29 
Q 4.296875 34.96875 7.609375 39.578125 
Q 10.9375 44.1875 16.015625 44.1875 
Q 19.578125 44.1875 22.046875 41.84375 
Q 24.515625 39.5 24.515625 35.890625 
Q 24.515625 34.03125 23.6875 31.984375 
Q 22.515625 28.953125 20.921875 24.703125 
Q 19.34375 20.453125 18.453125 16.984375 
Q 17.578125 13.53125 17.578125 10.296875 
Q 17.578125 6.390625 19.625 3.953125 
Q 21.6875 1.515625 25.59375 1.515625 
Q 30.90625 1.515625 34.421875 9.625 
Q 34.28125 10.203125 34.28125 11.28125 
Q 34.28125 13.96875 35.109375 17.390625 
L 40.71875 39.890625 
Q 41.0625 41.21875 42.28125 42.15625 
Q 43.5 43.109375 44.921875 43.109375 
Q 46.09375 43.109375 47 42.328125 
Q 47.90625 41.546875 47.90625 40.28125 
Q 47.90625 39.703125 47.796875 39.5 
L 42.1875 17.1875 
Q 41.21875 13.1875 41.21875 10.015625 
Q 41.21875 6.25 42.9375 3.875 
Q 44.671875 1.515625 48.390625 1.515625 
Q 54.828125 1.515625 58.984375 10.015625 
Q 60.546875 13.03125 62.46875 18.9375 
Q 64.40625 24.859375 64.40625 27.984375 
Q 64.40625 30.859375 63.46875 32.546875 
Q 62.546875 34.234375 60.90625 36.1875 
Q 59.28125 38.140625 59.28125 39.109375 
Q 59.28125 41.015625 60.90625 42.640625 
Q 62.546875 44.28125 64.5 44.28125 
Q 66.890625 44.28125 67.9375 42.078125 
Q 69 39.890625 69 37.109375 
Q 69 33.734375 67.875 28.53125 
Q 66.75 23.34375 65.03125 18.09375 
Q 63.328125 12.84375 61.8125 9.71875 
Q 56.34375 -1.125 48.1875 -1.125 
Q 44 -1.125 40.53125 0.484375 
Q 37.0625 2.09375 35.40625 5.609375 
Q 33.796875 2.734375 31.171875 0.796875 
Q 28.5625 -1.125 25.390625 -1.125 
Q 18.796875 -1.125 14.796875 2.015625 
Q 10.796875 5.171875 10.796875 11.625 
" id="Cmmi10-77"/>
     <path d="M 17.28125 -1.125 
Q 11.234375 -1.125 7.859375 3.609375 
Q 4.5 8.34375 4.5 14.703125 
Q 4.5 15.625 4.953125 18.328125 
Q 5.421875 21.046875 5.421875 21.6875 
L 15.09375 60.5 
Q 15.484375 62.203125 15.578125 63.1875 
Q 15.578125 64.796875 9.078125 64.796875 
Q 8.109375 64.796875 8.109375 66.109375 
Q 8.15625 66.359375 8.328125 66.984375 
Q 8.5 67.625 8.765625 67.96875 
Q 9.03125 68.3125 9.515625 68.3125 
L 23 69.390625 
Q 24.21875 69.390625 24.21875 68.109375 
L 16.796875 38.625 
Q 22.46875 44.1875 28.21875 44.1875 
Q 32.46875 44.1875 35.515625 41.9375 
Q 38.578125 39.703125 40.09375 36.03125 
Q 41.609375 32.375 41.609375 28.21875 
Q 41.609375 23.390625 39.71875 18.234375 
Q 37.84375 13.09375 34.515625 8.671875 
Q 31.203125 4.25 26.75 1.5625 
Q 22.3125 -1.125 17.28125 -1.125 
M 17.484375 1.515625 
Q 20.90625 1.515625 23.875 4.375 
Q 26.859375 7.234375 28.71875 10.796875 
Q 30.71875 14.796875 32.453125 21.65625 
Q 34.1875 28.515625 34.1875 32.625 
Q 34.1875 36.1875 32.6875 38.890625 
Q 31.203125 41.609375 27.984375 41.609375 
Q 24.359375 41.609375 21.0625 38.9375 
Q 17.78125 36.28125 15.28125 32.625 
L 12.5 21.296875 
Q 10.890625 14.984375 10.796875 11.1875 
Q 10.796875 7.421875 12.421875 4.46875 
Q 14.0625 1.515625 17.484375 1.515625 
" id="Cmmi10-62"/>
     <path d="M 8.6875 6.109375 
Q 11.375 1.515625 19.484375 1.515625 
Q 23 1.515625 26.171875 2.703125 
Q 29.34375 3.90625 31.421875 6.296875 
Q 33.5 8.6875 33.5 12.109375 
Q 33.5 14.703125 31.640625 16.359375 
Q 29.78125 18.015625 27.09375 18.609375 
L 21.6875 19.671875 
Q 17.96875 20.609375 15.578125 23.140625 
Q 13.1875 25.6875 13.1875 29.296875 
Q 13.1875 33.734375 15.59375 37.15625 
Q 18.015625 40.578125 21.96875 42.375 
Q 25.921875 44.1875 30.171875 44.1875 
Q 34.71875 44.1875 38.296875 42.015625 
Q 41.890625 39.84375 41.890625 35.59375 
Q 41.890625 33.296875 40.59375 31.53125 
Q 39.3125 29.78125 37.015625 29.78125 
Q 35.6875 29.78125 34.734375 30.640625 
Q 33.796875 31.5 33.796875 32.8125 
Q 33.796875 33.984375 34.453125 35.078125 
Q 35.109375 36.1875 36.203125 36.84375 
Q 37.3125 37.5 38.484375 37.5 
Q 37.59375 39.65625 35.171875 40.625 
Q 32.765625 41.609375 29.984375 41.609375 
Q 27.4375 41.609375 24.890625 40.578125 
Q 22.359375 39.546875 20.8125 37.5625 
Q 19.28125 35.59375 19.28125 32.90625 
Q 19.28125 31.109375 20.546875 29.734375 
Q 21.828125 28.375 23.6875 27.78125 
L 29.5 26.609375 
Q 32.28125 26.03125 34.59375 24.53125 
Q 36.921875 23.046875 38.25 20.765625 
Q 39.59375 18.5 39.59375 15.578125 
Q 39.59375 11.859375 37.515625 8.25 
Q 35.453125 4.640625 32.421875 2.484375 
Q 27.09375 -1.125 19.390625 -1.125 
Q 14.0625 -1.125 9.609375 1.3125 
Q 5.171875 3.765625 5.171875 8.59375 
Q 5.171875 11.328125 6.75 13.34375 
Q 8.34375 15.375 11.078125 15.375 
Q 12.703125 15.375 13.796875 14.390625 
Q 14.890625 13.421875 14.890625 11.8125 
Q 14.890625 9.515625 13.171875 7.8125 
Q 11.46875 6.109375 9.1875 6.109375 
z
" id="Cmmi10-73"/>
     <path d="M 4.6875 0 
Q 3.71875 0 3.71875 1.3125 
Q 3.765625 1.5625 3.90625 2.171875 
Q 4.046875 2.78125 4.3125 3.140625 
Q 4.59375 3.515625 4.984375 3.515625 
Q 11.078125 3.515625 13.484375 4.203125 
Q 14.796875 4.640625 15.375 6.890625 
L 29.109375 61.8125 
Q 29.296875 62.796875 29.296875 63.1875 
Q 29.296875 64.265625 28.078125 64.40625 
Q 26.21875 64.796875 20.90625 64.796875 
Q 19.921875 64.796875 19.921875 66.109375 
Q 20.265625 67.390625 20.453125 67.84375 
Q 20.65625 68.3125 21.578125 68.3125 
L 51.125 68.3125 
Q 52 68.3125 52 67 
Q 51.859375 65.96875 51.65625 65.375 
Q 51.46875 64.796875 50.6875 64.796875 
Q 43.3125 64.796875 40.828125 64.3125 
Q 38.375 63.875 37.796875 61.375 
L 24.125 6.5 
Q 23.6875 5.28125 23.6875 4.296875 
Q 23.6875 3.515625 27.09375 3.515625 
L 36.375 3.515625 
Q 44.234375 3.515625 49.109375 6.640625 
Q 54 9.765625 56.34375 13.6875 
Q 58.6875 17.625 60.265625 21.84375 
Q 61.859375 26.078125 62.59375 26.21875 
L 63.484375 26.21875 
Q 64.5 26.21875 64.5 24.90625 
L 55.609375 0.6875 
Q 55.46875 0 54.6875 0 
z
" id="Cmmi10-4c"/>
    </defs>
    <g style="fill:#3e9145;" transform="translate(133.6 44.68)scale(0.2 -0.2)">
     <use transform="translate(0.0 0.609375)" xlink:href="#Cmmi10-4c"/>
     <use transform="translate(68.017578125 0.609375)" xlink:href="#Cmmi10-69"/>
     <use transform="translate(102.44140625 0.609375)" xlink:href="#Cmmi10-6e"/>
     <use transform="translate(162.451171875 0.609375)" xlink:href="#Cmmi10-65"/>
     <use transform="translate(208.935546875 0.609375)" xlink:href="#Cmmi10-61"/>
     <use transform="translate(261.71875 0.609375)" xlink:href="#Cmmi10-72"/>
     <use transform="translate(306.8359375 0.609375)" xlink:href="#ArialMT-20"/>
     <use transform="translate(334.619140625 0.609375)" xlink:href="#Cmmi10-72"/>
     <use transform="translate(379.736328125 0.609375)" xlink:href="#Cmmi10-65"/>
     <use transform="translate(426.220703125 0.609375)" xlink:href="#Cmmi10-67"/>
     <use transform="translate(473.92578125 0.609375)" xlink:href="#Cmmi10-72"/>
     <use transform="translate(519.04296875 0.609375)" xlink:href="#Cmmi10-65"/>
     <use transform="translate(565.52734375 0.609375)" xlink:href="#Cmmi10-73"/>
     <use transform="translate(612.3046875 0.609375)" xlink:href="#Cmmi10-73"/>
     <use transform="translate(659.08203125 0.609375)" xlink:href="#Cmmi10-69"/>
     <use transform="translate(693.505859375 0.609375)" xlink:href="#Cmmi10-6f"/>
     <use transform="translate(741.89453125 0.609375)" xlink:href="#Cmmi10-6e"/>
     <use transform="translate(801.904296875 0.609375)" xlink:href="#ArialMT-20"/>
     <use transform="translate(829.6875 0.609375)" xlink:href="#Cmmi10-62"/>
     <use transform="translate(872.607421875 0.609375)" xlink:href="#Cmmi10-65"/>
     <use transform="translate(919.091796875 0.609375)" xlink:href="#Cmmi10-74"/>
     <use transform="translate(955.17578125 0.609375)" xlink:href="#Cmmi10-77"/>
     <use transform="translate(1026.66015625 0.609375)" xlink:href="#Cmmi10-65"/>
     <use transform="translate(1073.14453125 0.609375)" xlink:href="#Cmmi10-65"/>
     <use transform="translate(1119.62890625 0.609375)" xlink:href="#Cmmi10-6e"/>
     <use transform="translate(1179.638671875 0.609375)" xlink:href="#ArialMT-20"/>
     <use transform="translate(1207.421875 0.609375)" xlink:href="#Cmmi10-67"/>
     <use transform="translate(1255.126953125 0.609375)" xlink:href="#Cmmi10-72"/>
     <use transform="translate(1300.244140625 0.609375)" xlink:href="#Cmmi10-61"/>
     <use transform="translate(1353.02734375 0.609375)" xlink:href="#Cmmi10-76"/>
     <use transform="translate(1401.416015625 0.609375)" xlink:href="#Cmmi10-69"/>
     <use transform="translate(1435.83984375 0.609375)" xlink:href="#Cmmi10-74"/>
     <use transform="translate(1471.923828125 0.609375)" xlink:href="#Cmmi10-79"/>
     <use transform="translate(1520.947265625 0.609375)" xlink:href="#ArialMT-20"/>
     <use transform="translate(1548.73046875 0.609375)" xlink:href="#Cmmi10-61"/>
     <use transform="translate(1601.513671875 0.609375)" xlink:href="#Cmmi10-6e"/>
     <use transform="translate(1661.5234375 0.609375)" xlink:href="#Cmmi10-64"/>
     <use transform="translate(1713.525390625 0.609375)" xlink:href="#ArialMT-20"/>
     <use transform="translate(1741.30859375 0.609375)" xlink:href="#Cmmi10-75"/>
     <use transform="translate(1798.486328125 0.609375)" xlink:href="#Cmmi10-72"/>
     <use transform="translate(1843.603515625 0.609375)" xlink:href="#Cmmi10-69"/>
     <use transform="translate(1878.02734375 0.609375)" xlink:href="#Cmmi10-6e"/>
     <use transform="translate(1938.037109375 0.609375)" xlink:href="#Cmmi10-65"/>
    </g>
   </g>
  </g>
 </g>
 <defs>
  <clipPath id="p97b58da78a">
   <rect height="385.02" width="502.2" x="81.0" y="49.68"/>
  </clipPath>
 </defs>
</svg>
