<?xml version="1.0" encoding="utf-8" standalone="no"?>
<!DOCTYPE svg PUBLIC "-//W3C//DTD SVG 1.1//EN"
  "http://www.w3.org/Graphics/SVG/1.1/DTD/svg11.dtd">
<!-- Created with matplotlib (http://matplotlib.org/) -->
<svg height="496pt" version="1.1" viewBox="0 0 648 496" width="648pt" xmlns="http://www.w3.org/2000/svg" xmlns:xlink="http://www.w3.org/1999/xlink">
 <defs>
  <style type="text/css">
*{stroke-linecap:butt;stroke-linejoin:round;stroke-miterlimit:100000;}
  </style>
 </defs>
 <g id="figure_1">
  <g id="patch_1">
   <path d="M 0 496.8 
L 648 496.8 
L 648 0 
L 0 0 
z
" style="fill:#ffffff;"/>
  </g>
  <g id="axes_1">
   <g id="patch_2">
    <path d="M 81 434.7 
L 583.2 434.7 
L 583.2 49.68 
L 81 49.68 
z
" style="fill:#e5e5e5;"/>
   </g>
   <g id="matplotlib.axis_1">
    <g id="xtick_1">
     <g id="line2d_1">
      <path clip-path="url(#pa61f52339c)" d="M 140.53401 434.7 
L 140.53401 49.68 
" style="fill:none;stroke:#ffffff;stroke-linecap:round;"/>
     </g>
     <g id="line2d_2">
      <defs>
       <path d="M 0 0 
L 0 0 
" id="mf77fb11929" style="stroke:#555555;"/>
      </defs>
      <g>
       <use style="fill:#555555;stroke:#555555;" x="140.534010256" xlink:href="#mf77fb11929" y="434.7"/>
      </g>
     </g>
     <g id="line2d_3">
      <g>
       <use style="fill:#555555;stroke:#555555;" x="140.534010256" xlink:href="#mf77fb11929" y="49.68"/>
      </g>
     </g>
     <g id="text_1">
      <!-- -0.4 -->
      <defs>
       <path d="M 4.15625 35.296875 
Q 4.15625 48 6.765625 55.734375 
Q 9.375 63.484375 14.515625 67.671875 
Q 19.671875 71.875 27.484375 71.875 
Q 33.25 71.875 37.59375 69.546875 
Q 41.9375 67.234375 44.765625 62.859375 
Q 47.609375 58.5 49.21875 52.21875 
Q 50.828125 45.953125 50.828125 35.296875 
Q 50.828125 22.703125 48.234375 14.96875 
Q 45.65625 7.234375 40.5 3 
Q 35.359375 -1.21875 27.484375 -1.21875 
Q 17.140625 -1.21875 11.234375 6.203125 
Q 4.15625 15.140625 4.15625 35.296875 
M 13.1875 35.296875 
Q 13.1875 17.671875 17.3125 11.828125 
Q 21.4375 6 27.484375 6 
Q 33.546875 6 37.671875 11.859375 
Q 41.796875 17.71875 41.796875 35.296875 
Q 41.796875 52.984375 37.671875 58.78125 
Q 33.546875 64.59375 27.390625 64.59375 
Q 21.34375 64.59375 17.71875 59.46875 
Q 13.1875 52.9375 13.1875 35.296875 
" id="ArialMT-30"/>
       <path d="M 9.078125 0 
L 9.078125 10.015625 
L 19.09375 10.015625 
L 19.09375 0 
z
" id="ArialMT-2e"/>
       <path d="M 3.171875 21.484375 
L 3.171875 30.328125 
L 30.171875 30.328125 
L 30.171875 21.484375 
z
" id="ArialMT-2d"/>
       <path d="M 32.328125 0 
L 32.328125 17.140625 
L 1.265625 17.140625 
L 1.265625 25.203125 
L 33.9375 71.578125 
L 41.109375 71.578125 
L 41.109375 25.203125 
L 50.78125 25.203125 
L 50.78125 17.140625 
L 41.109375 17.140625 
L 41.109375 0 
z
M 32.328125 25.203125 
L 32.328125 57.46875 
L 9.90625 25.203125 
z
" id="ArialMT-34"/>
      </defs>
      <g style="fill:#555555;" transform="translate(131.919166506 448.8578125)scale(0.1 -0.1)">
       <use xlink:href="#ArialMT-2d"/>
       <use x="33.30078125" xlink:href="#ArialMT-30"/>
       <use x="88.916015625" xlink:href="#ArialMT-2e"/>
       <use x="116.69921875" xlink:href="#ArialMT-34"/>
      </g>
     </g>
    </g>
    <g id="xtick_2">
     <g id="line2d_4">
      <path clip-path="url(#pa61f52339c)" d="M 231.843101 434.7 
L 231.843101 49.68 
" style="fill:none;stroke:#ffffff;stroke-linecap:round;"/>
     </g>
     <g id="line2d_5">
      <g>
       <use style="fill:#555555;stroke:#555555;" x="231.843101165" xlink:href="#mf77fb11929" y="434.7"/>
      </g>
     </g>
     <g id="line2d_6">
      <g>
       <use style="fill:#555555;stroke:#555555;" x="231.843101165" xlink:href="#mf77fb11929" y="49.68"/>
      </g>
     </g>
     <g id="text_2">
      <!-- -0.2 -->
      <defs>
       <path d="M 50.34375 8.453125 
L 50.34375 0 
L 3.03125 0 
Q 2.9375 3.171875 4.046875 6.109375 
Q 5.859375 10.9375 9.828125 15.625 
Q 13.8125 20.3125 21.34375 26.46875 
Q 33.015625 36.03125 37.109375 41.625 
Q 41.21875 47.21875 41.21875 52.203125 
Q 41.21875 57.421875 37.46875 61 
Q 33.734375 64.59375 27.734375 64.59375 
Q 21.390625 64.59375 17.578125 60.78125 
Q 13.765625 56.984375 13.71875 50.25 
L 4.6875 51.171875 
Q 5.609375 61.28125 11.65625 66.578125 
Q 17.71875 71.875 27.9375 71.875 
Q 38.234375 71.875 44.234375 66.15625 
Q 50.25 60.453125 50.25 52 
Q 50.25 47.703125 48.484375 43.546875 
Q 46.734375 39.40625 42.65625 34.8125 
Q 38.578125 30.21875 29.109375 22.21875 
Q 21.1875 15.578125 18.9375 13.203125 
Q 16.703125 10.84375 15.234375 8.453125 
z
" id="ArialMT-32"/>
      </defs>
      <g style="fill:#555555;" transform="translate(223.228257415 448.8578125)scale(0.1 -0.1)">
       <use xlink:href="#ArialMT-2d"/>
       <use x="33.30078125" xlink:href="#ArialMT-30"/>
       <use x="88.916015625" xlink:href="#ArialMT-2e"/>
       <use x="116.69921875" xlink:href="#ArialMT-32"/>
      </g>
     </g>
    </g>
    <g id="xtick_3">
     <g id="line2d_7">
      <path clip-path="url(#pa61f52339c)" d="M 323.152192 434.7 
L 323.152192 49.68 
" style="fill:none;stroke:#ffffff;stroke-linecap:round;"/>
     </g>
     <g id="line2d_8">
      <g>
       <use style="fill:#555555;stroke:#555555;" x="323.152192074" xlink:href="#mf77fb11929" y="434.7"/>
      </g>
     </g>
     <g id="line2d_9">
      <g>
       <use style="fill:#555555;stroke:#555555;" x="323.152192074" xlink:href="#mf77fb11929" y="49.68"/>
      </g>
     </g>
     <g id="text_3">
      <!-- 0.0 -->
      <g style="fill:#555555;" transform="translate(316.202192074 448.8578125)scale(0.1 -0.1)">
       <use xlink:href="#ArialMT-30"/>
       <use x="55.615234375" xlink:href="#ArialMT-2e"/>
       <use x="83.3984375" xlink:href="#ArialMT-30"/>
      </g>
     </g>
    </g>
    <g id="xtick_4">
     <g id="line2d_10">
      <path clip-path="url(#pa61f52339c)" d="M 414.461283 434.7 
L 414.461283 49.68 
" style="fill:none;stroke:#ffffff;stroke-linecap:round;"/>
     </g>
     <g id="line2d_11">
      <g>
       <use style="fill:#555555;stroke:#555555;" x="414.461282983" xlink:href="#mf77fb11929" y="434.7"/>
      </g>
     </g>
     <g id="line2d_12">
      <g>
       <use style="fill:#555555;stroke:#555555;" x="414.461282983" xlink:href="#mf77fb11929" y="49.68"/>
      </g>
     </g>
     <g id="text_4">
      <!-- 0.2 -->
      <g style="fill:#555555;" transform="translate(407.511282983 448.8578125)scale(0.1 -0.1)">
       <use xlink:href="#ArialMT-30"/>
       <use x="55.615234375" xlink:href="#ArialMT-2e"/>
       <use x="83.3984375" xlink:href="#ArialMT-32"/>
      </g>
     </g>
    </g>
    <g id="xtick_5">
     <g id="line2d_13">
      <path clip-path="url(#pa61f52339c)" d="M 505.770374 434.7 
L 505.770374 49.68 
" style="fill:none;stroke:#ffffff;stroke-linecap:round;"/>
     </g>
     <g id="line2d_14">
      <g>
       <use style="fill:#555555;stroke:#555555;" x="505.770373892" xlink:href="#mf77fb11929" y="434.7"/>
      </g>
     </g>
     <g id="line2d_15">
      <g>
       <use style="fill:#555555;stroke:#555555;" x="505.770373892" xlink:href="#mf77fb11929" y="49.68"/>
      </g>
     </g>
     <g id="text_5">
      <!-- 0.4 -->
      <g style="fill:#555555;" transform="translate(498.820373892 448.8578125)scale(0.1 -0.1)">
       <use xlink:href="#ArialMT-30"/>
       <use x="55.615234375" xlink:href="#ArialMT-2e"/>
       <use x="83.3984375" xlink:href="#ArialMT-34"/>
      </g>
     </g>
    </g>
    <g id="text_6">
     <!-- $Urea$ -->
     <defs>
      <path d="M 20.125 -1.125 
Q 15.328125 -1.125 11.734375 1.359375 
Q 8.15625 3.859375 6.265625 8.078125 
Q 4.390625 12.3125 4.390625 17 
Q 4.390625 24.125 7.984375 30.390625 
Q 11.578125 36.671875 17.71875 40.421875 
Q 23.875 44.1875 30.90625 44.1875 
Q 35.203125 44.1875 38.40625 41.96875 
Q 41.609375 39.75 41.609375 35.59375 
Q 41.609375 29.828125 37.015625 27.015625 
Q 32.421875 24.21875 26.65625 23.5625 
Q 20.90625 22.90625 13.921875 22.90625 
L 13.625 22.90625 
Q 12.015625 16.9375 12.015625 12.703125 
Q 12.015625 8.25 14.0625 4.875 
Q 16.109375 1.515625 20.3125 1.515625 
Q 26.265625 1.515625 31.75 4.25 
Q 37.25 6.984375 40.71875 11.8125 
Q 41.015625 12.109375 41.5 12.109375 
Q 42 12.109375 42.5 11.546875 
Q 43.015625 10.984375 43.015625 10.5 
Q 43.015625 10.109375 42.828125 9.90625 
Q 39.15625 4.78125 32.953125 1.828125 
Q 26.765625 -1.125 20.125 -1.125 
M 14.203125 25.484375 
Q 20.015625 25.484375 24.953125 26.015625 
Q 29.890625 26.5625 33.890625 28.734375 
Q 37.890625 30.90625 37.890625 35.5 
Q 37.890625 37.359375 36.859375 38.75 
Q 35.84375 40.140625 34.203125 40.875 
Q 32.5625 41.609375 30.8125 41.609375 
Q 26.5625 41.609375 23.171875 39.3125 
Q 19.78125 37.015625 17.578125 33.328125 
Q 15.375 29.640625 14.203125 25.484375 
" id="Cmmi10-65"/>
      <path d="M 7.71875 1.703125 
Q 7.71875 2.296875 7.8125 2.59375 
L 15.28125 32.421875 
Q 16.015625 35.203125 16.015625 37.3125 
Q 16.015625 41.609375 13.09375 41.609375 
Q 9.96875 41.609375 8.453125 37.859375 
Q 6.9375 34.125 5.515625 28.421875 
Q 5.515625 28.125 5.21875 27.953125 
Q 4.9375 27.78125 4.6875 27.78125 
L 3.515625 27.78125 
Q 3.171875 27.78125 2.921875 28.140625 
Q 2.6875 28.515625 2.6875 28.8125 
Q 3.765625 33.15625 4.765625 36.171875 
Q 5.765625 39.203125 7.890625 41.6875 
Q 10.015625 44.1875 13.1875 44.1875 
Q 16.65625 44.1875 19.265625 42.1875 
Q 21.875 40.1875 22.515625 36.921875 
Q 25.046875 40.234375 28.296875 42.203125 
Q 31.546875 44.1875 35.40625 44.1875 
Q 38.578125 44.1875 40.984375 42.328125 
Q 43.40625 40.484375 43.40625 37.3125 
Q 43.40625 34.765625 41.8125 32.875 
Q 40.234375 31 37.59375 31 
Q 35.984375 31 34.890625 32 
Q 33.796875 33.015625 33.796875 34.625 
Q 33.796875 36.8125 35.40625 38.546875 
Q 37.015625 40.28125 39.109375 40.28125 
Q 37.5 41.609375 35.203125 41.609375 
Q 30.90625 41.609375 27.734375 38.546875 
Q 24.5625 35.5 22.015625 30.8125 
L 14.890625 2.203125 
Q 14.546875 0.828125 13.34375 -0.140625 
Q 12.15625 -1.125 10.6875 -1.125 
Q 9.46875 -1.125 8.59375 -0.34375 
Q 7.71875 0.4375 7.71875 1.703125 
" id="Cmmi10-72"/>
      <path d="M 14.703125 13.921875 
Q 14.703125 10.25 16.140625 7.375 
Q 17.578125 4.5 20.3125 2.90625 
Q 23.046875 1.3125 26.703125 1.3125 
Q 31 1.3125 35.078125 3.0625 
Q 39.15625 4.828125 42.421875 7.953125 
Q 45.703125 11.078125 48.015625 15.078125 
Q 50.34375 19.09375 51.3125 23 
L 60.296875 59.078125 
Q 60.5 60.15625 60.5 60.59375 
Q 60.5 64.796875 52.78125 64.796875 
Q 51.8125 64.796875 51.8125 66.109375 
Q 52.15625 67.390625 52.34375 67.84375 
Q 52.546875 68.3125 53.515625 68.3125 
L 75.203125 68.3125 
Q 75.640625 68.3125 75.921875 67.875 
Q 76.21875 67.4375 76.21875 67 
Q 76.21875 66.9375 76.015625 66.234375 
Q 75.828125 65.53125 75.5625 65.15625 
Q 75.296875 64.796875 74.90625 64.796875 
Q 65.328125 64.796875 63.8125 58.6875 
L 54.78125 22.609375 
Q 53.65625 17.921875 51 13.5 
Q 48.34375 9.078125 44.453125 5.484375 
Q 40.578125 1.90625 35.90625 -0.140625 
Q 31.25 -2.203125 26.421875 -2.203125 
Q 20.90625 -2.203125 16.328125 0.21875 
Q 11.765625 2.640625 9.171875 6.984375 
Q 6.59375 11.328125 6.59375 17 
Q 6.59375 20.265625 7.328125 23 
L 17 61.8125 
Q 17.1875 62.796875 17.1875 63.1875 
Q 17.1875 64.265625 16.015625 64.40625 
Q 14.109375 64.796875 8.796875 64.796875 
Q 7.8125 64.796875 7.8125 66.109375 
Q 8.15625 67.390625 8.34375 67.84375 
Q 8.546875 68.3125 9.515625 68.3125 
L 36.375 68.3125 
Q 37.40625 68.3125 37.40625 67 
Q 37.359375 66.75 37.203125 66.15625 
Q 37.0625 65.578125 36.8125 65.1875 
Q 36.578125 64.796875 36.078125 64.796875 
Q 29.984375 64.796875 27.59375 64.109375 
Q 26.265625 63.625 25.6875 61.375 
L 16.015625 22.609375 
Q 14.703125 17.328125 14.703125 13.921875 
" id="Cmmi10-55"/>
      <path d="M 17.390625 -1.125 
Q 11.078125 -1.125 7.4375 3.640625 
Q 3.8125 8.40625 3.8125 14.890625 
Q 3.8125 21.296875 7.125 28.171875 
Q 10.453125 35.0625 16.09375 39.625 
Q 21.734375 44.1875 28.21875 44.1875 
Q 31.203125 44.1875 33.546875 42.578125 
Q 35.890625 40.96875 37.203125 38.1875 
Q 38.328125 42.1875 41.609375 42.1875 
Q 42.875 42.1875 43.71875 41.421875 
Q 44.578125 40.671875 44.578125 39.40625 
Q 44.578125 39.109375 44.546875 38.953125 
Q 44.53125 38.8125 44.484375 38.625 
L 37.5 10.6875 
Q 36.8125 7.71875 36.8125 5.8125 
Q 36.8125 1.515625 39.703125 1.515625 
Q 42.828125 1.515625 44.453125 5.484375 
Q 46.09375 9.46875 47.21875 14.703125 
Q 47.40625 15.28125 48 15.28125 
L 49.21875 15.28125 
Q 49.609375 15.28125 49.84375 14.9375 
Q 50.09375 14.59375 50.09375 14.3125 
Q 48.34375 7.328125 46.265625 3.09375 
Q 44.1875 -1.125 39.5 -1.125 
Q 36.140625 -1.125 33.546875 0.84375 
Q 30.953125 2.828125 30.328125 6.109375 
Q 23.875 -1.125 17.390625 -1.125 
M 17.484375 1.515625 
Q 21.09375 1.515625 24.484375 4.21875 
Q 27.875 6.9375 30.328125 10.59375 
Q 30.421875 10.6875 30.421875 10.890625 
L 35.796875 32.625 
L 35.890625 32.90625 
Q 35.296875 36.46875 33.3125 39.03125 
Q 31.34375 41.609375 27.984375 41.609375 
Q 24.609375 41.609375 21.703125 38.84375 
Q 18.796875 36.078125 16.796875 32.328125 
Q 14.84375 28.328125 13.0625 21.34375 
Q 11.28125 14.359375 11.28125 10.5 
Q 11.28125 7.03125 12.765625 4.265625 
Q 14.265625 1.515625 17.484375 1.515625 
" id="Cmmi10-61"/>
     </defs>
     <g style="fill:#348fba;" transform="translate(312.93 468.729375)scale(0.18 -0.18)">
      <use transform="translate(0.0 0.6875)" xlink:href="#Cmmi10-55"/>
      <use transform="translate(68.212890625 0.6875)" xlink:href="#Cmmi10-72"/>
      <use transform="translate(113.330078125 0.6875)" xlink:href="#Cmmi10-65"/>
      <use transform="translate(159.814453125 0.6875)" xlink:href="#Cmmi10-61"/>
     </g>
    </g>
   </g>
   <g id="matplotlib.axis_2">
    <g id="ytick_1">
     <g id="line2d_16">
      <path clip-path="url(#pa61f52339c)" d="M 81 416.247069 
L 583.2 416.247069 
" style="fill:none;stroke:#ffffff;stroke-linecap:round;"/>
     </g>
     <g id="line2d_17">
      <g>
       <use style="fill:#555555;stroke:#555555;" x="81.0" xlink:href="#mf77fb11929" y="416.2470689"/>
      </g>
     </g>
     <g id="line2d_18">
      <g>
       <use style="fill:#555555;stroke:#555555;" x="583.2" xlink:href="#mf77fb11929" y="416.2470689"/>
      </g>
     </g>
     <g id="text_7">
      <!-- -0.4 -->
      <g style="fill:#555555;" transform="translate(56.7703125 418.83222515)scale(0.1 -0.1)">
       <use xlink:href="#ArialMT-2d"/>
       <use x="33.30078125" xlink:href="#ArialMT-30"/>
       <use x="88.916015625" xlink:href="#ArialMT-2e"/>
       <use x="116.69921875" xlink:href="#ArialMT-34"/>
      </g>
     </g>
    </g>
    <g id="ytick_2">
     <g id="line2d_19">
      <path clip-path="url(#pa61f52339c)" d="M 81 346.243433 
L 583.2 346.243433 
" style="fill:none;stroke:#ffffff;stroke-linecap:round;"/>
     </g>
     <g id="line2d_20">
      <g>
       <use style="fill:#555555;stroke:#555555;" x="81.0" xlink:href="#mf77fb11929" y="346.243432537"/>
      </g>
     </g>
     <g id="line2d_21">
      <g>
       <use style="fill:#555555;stroke:#555555;" x="583.2" xlink:href="#mf77fb11929" y="346.243432537"/>
      </g>
     </g>
     <g id="text_8">
      <!-- -0.2 -->
      <g style="fill:#555555;" transform="translate(56.7703125 348.828588787)scale(0.1 -0.1)">
       <use xlink:href="#ArialMT-2d"/>
       <use x="33.30078125" xlink:href="#ArialMT-30"/>
       <use x="88.916015625" xlink:href="#ArialMT-2e"/>
       <use x="116.69921875" xlink:href="#ArialMT-32"/>
      </g>
     </g>
    </g>
    <g id="ytick_3">
     <g id="line2d_22">
      <path clip-path="url(#pa61f52339c)" d="M 81 276.239796 
L 583.2 276.239796 
" style="fill:none;stroke:#ffffff;stroke-linecap:round;"/>
     </g>
     <g id="line2d_23">
      <g>
       <use style="fill:#555555;stroke:#555555;" x="81.0" xlink:href="#mf77fb11929" y="276.239796173"/>
      </g>
     </g>
     <g id="line2d_24">
      <g>
       <use style="fill:#555555;stroke:#555555;" x="583.2" xlink:href="#mf77fb11929" y="276.239796173"/>
      </g>
     </g>
     <g id="text_9">
      <!-- 0.0 -->
      <g style="fill:#555555;" transform="translate(60.1 278.824952423)scale(0.1 -0.1)">
       <use xlink:href="#ArialMT-30"/>
       <use x="55.615234375" xlink:href="#ArialMT-2e"/>
       <use x="83.3984375" xlink:href="#ArialMT-30"/>
      </g>
     </g>
    </g>
    <g id="ytick_4">
     <g id="line2d_25">
      <path clip-path="url(#pa61f52339c)" d="M 81 206.23616 
L 583.2 206.23616 
" style="fill:none;stroke:#ffffff;stroke-linecap:round;"/>
     </g>
     <g id="line2d_26">
      <g>
       <use style="fill:#555555;stroke:#555555;" x="81.0" xlink:href="#mf77fb11929" y="206.236159809"/>
      </g>
     </g>
     <g id="line2d_27">
      <g>
       <use style="fill:#555555;stroke:#555555;" x="583.2" xlink:href="#mf77fb11929" y="206.236159809"/>
      </g>
     </g>
     <g id="text_10">
      <!-- 0.2 -->
      <g style="fill:#555555;" transform="translate(60.1 208.821316059)scale(0.1 -0.1)">
       <use xlink:href="#ArialMT-30"/>
       <use x="55.615234375" xlink:href="#ArialMT-2e"/>
       <use x="83.3984375" xlink:href="#ArialMT-32"/>
      </g>
     </g>
    </g>
    <g id="ytick_5">
     <g id="line2d_28">
      <path clip-path="url(#pa61f52339c)" d="M 81 136.232523 
L 583.2 136.232523 
" style="fill:none;stroke:#ffffff;stroke-linecap:round;"/>
     </g>
     <g id="line2d_29">
      <g>
       <use style="fill:#555555;stroke:#555555;" x="81.0" xlink:href="#mf77fb11929" y="136.232523446"/>
      </g>
     </g>
     <g id="line2d_30">
      <g>
       <use style="fill:#555555;stroke:#555555;" x="583.2" xlink:href="#mf77fb11929" y="136.232523446"/>
      </g>
     </g>
     <g id="text_11">
      <!-- 0.4 -->
      <g style="fill:#555555;" transform="translate(60.1 138.817679696)scale(0.1 -0.1)">
       <use xlink:href="#ArialMT-30"/>
       <use x="55.615234375" xlink:href="#ArialMT-2e"/>
       <use x="83.3984375" xlink:href="#ArialMT-34"/>
      </g>
     </g>
    </g>
    <g id="ytick_6">
     <g id="line2d_31">
      <path clip-path="url(#pa61f52339c)" d="M 81 66.228887 
L 583.2 66.228887 
" style="fill:none;stroke:#ffffff;stroke-linecap:round;"/>
     </g>
     <g id="line2d_32">
      <g>
       <use style="fill:#555555;stroke:#555555;" x="81.0" xlink:href="#mf77fb11929" y="66.228887082"/>
      </g>
     </g>
     <g id="line2d_33">
      <g>
       <use style="fill:#555555;stroke:#555555;" x="583.2" xlink:href="#mf77fb11929" y="66.228887082"/>
      </g>
     </g>
     <g id="text_12">
      <!-- 0.6 -->
      <defs>
       <path d="M 49.75 54.046875 
L 41.015625 53.375 
Q 39.84375 58.546875 37.703125 60.890625 
Q 34.125 64.65625 28.90625 64.65625 
Q 24.703125 64.65625 21.53125 62.3125 
Q 17.390625 59.28125 14.984375 53.46875 
Q 12.59375 47.65625 12.5 36.921875 
Q 15.671875 41.75 20.265625 44.09375 
Q 24.859375 46.4375 29.890625 46.4375 
Q 38.671875 46.4375 44.84375 39.96875 
Q 51.03125 33.5 51.03125 23.25 
Q 51.03125 16.5 48.125 10.71875 
Q 45.21875 4.9375 40.140625 1.859375 
Q 35.0625 -1.21875 28.609375 -1.21875 
Q 17.625 -1.21875 10.6875 6.859375 
Q 3.765625 14.9375 3.765625 33.5 
Q 3.765625 54.25 11.421875 63.671875 
Q 18.109375 71.875 29.4375 71.875 
Q 37.890625 71.875 43.28125 67.140625 
Q 48.6875 62.40625 49.75 54.046875 
M 13.875 23.1875 
Q 13.875 18.65625 15.796875 14.5 
Q 17.71875 10.359375 21.1875 8.171875 
Q 24.65625 6 28.46875 6 
Q 34.03125 6 38.03125 10.484375 
Q 42.046875 14.984375 42.046875 22.703125 
Q 42.046875 30.125 38.078125 34.390625 
Q 34.125 38.671875 28.125 38.671875 
Q 22.171875 38.671875 18.015625 34.390625 
Q 13.875 30.125 13.875 23.1875 
" id="ArialMT-36"/>
      </defs>
      <g style="fill:#555555;" transform="translate(60.1 68.814043332)scale(0.1 -0.1)">
       <use xlink:href="#ArialMT-30"/>
       <use x="55.615234375" xlink:href="#ArialMT-2e"/>
       <use x="83.3984375" xlink:href="#ArialMT-36"/>
      </g>
     </g>
    </g>
    <g id="text_13">
     <!-- $ph$ -->
     <defs>
      <path d="M -2.484375 -19.390625 
Q -3.421875 -19.390625 -3.421875 -18.109375 
Q -3.078125 -15.921875 -2.09375 -15.921875 
Q 1.03125 -15.921875 2.265625 -15.359375 
Q 3.515625 -14.796875 4.203125 -12.5 
L 15.484375 32.515625 
Q 16.21875 34.375 16.21875 37.3125 
Q 16.21875 41.609375 13.28125 41.609375 
Q 10.15625 41.609375 8.640625 37.859375 
Q 7.125 34.125 5.71875 28.421875 
Q 5.71875 27.78125 4.890625 27.78125 
L 3.71875 27.78125 
Q 3.46875 27.78125 3.171875 28.140625 
Q 2.875 28.515625 2.875 28.8125 
Q 3.953125 33.15625 4.953125 36.171875 
Q 5.953125 39.203125 8.078125 41.6875 
Q 10.203125 44.1875 13.375 44.1875 
Q 16.796875 44.1875 19.375 42.25 
Q 21.96875 40.328125 22.703125 37.015625 
Q 25.4375 40.1875 28.75 42.1875 
Q 32.078125 44.1875 35.59375 44.1875 
Q 39.796875 44.1875 42.890625 41.9375 
Q 46 39.703125 47.5625 36.0625 
Q 49.125 32.421875 49.125 28.21875 
Q 49.125 21.78125 45.828125 14.890625 
Q 42.53125 8.015625 36.890625 3.4375 
Q 31.25 -1.125 24.8125 -1.125 
Q 21.875 -1.125 19.5 0.53125 
Q 17.140625 2.203125 15.828125 4.890625 
L 11.28125 -12.890625 
Q 11.03125 -14.359375 10.984375 -14.59375 
Q 10.984375 -15.921875 17.578125 -15.921875 
Q 18.609375 -15.921875 18.609375 -17.1875 
Q 18.265625 -18.5 18.046875 -18.9375 
Q 17.828125 -19.390625 16.890625 -19.390625 
z
M 24.90625 1.515625 
Q 28.375 1.515625 31.34375 4.375 
Q 34.328125 7.234375 36.1875 10.796875 
Q 37.546875 13.484375 38.734375 17.359375 
Q 39.9375 21.234375 40.8125 25.625 
Q 41.703125 30.03125 41.703125 32.625 
Q 41.703125 34.90625 41.09375 36.90625 
Q 40.484375 38.921875 39.09375 40.265625 
Q 37.703125 41.609375 35.40625 41.609375 
Q 31.734375 41.609375 28.484375 38.984375 
Q 25.25 36.375 22.609375 32.515625 
L 22.609375 32.171875 
L 17.09375 10.109375 
Q 17.78125 6.546875 19.734375 4.03125 
Q 21.6875 1.515625 24.90625 1.515625 
" id="Cmmi10-70"/>
      <path d="M 5.328125 1.8125 
Q 5.328125 2.390625 5.421875 2.6875 
L 19.921875 60.5 
Q 20.3125 62.203125 20.40625 63.1875 
Q 20.40625 64.796875 13.921875 64.796875 
Q 12.890625 64.796875 12.890625 66.109375 
Q 12.9375 66.359375 13.109375 66.984375 
Q 13.28125 67.625 13.546875 67.96875 
Q 13.8125 68.3125 14.3125 68.3125 
L 27.78125 69.390625 
L 28.078125 69.390625 
Q 28.078125 69.28125 28.421875 69.109375 
Q 28.765625 68.953125 28.8125 68.890625 
Q 29 68.40625 29 68.109375 
L 21.1875 36.921875 
Q 27.34375 44.1875 35.796875 44.1875 
Q 39.3125 44.1875 41.875 42.96875 
Q 44.4375 41.75 45.875 39.28125 
Q 47.3125 36.8125 47.3125 33.40625 
Q 47.3125 29.296875 45.484375 23.484375 
Q 43.65625 17.671875 40.921875 10.5 
Q 39.5 7.234375 39.5 4.5 
Q 39.5 1.515625 41.796875 1.515625 
Q 45.703125 1.515625 48.3125 5.6875 
Q 50.921875 9.859375 52 14.703125 
Q 52.203125 15.28125 52.78125 15.28125 
L 54 15.28125 
Q 54.390625 15.28125 54.640625 15.015625 
Q 54.890625 14.75 54.890625 14.40625 
Q 54.890625 14.3125 54.78125 14.109375 
Q 53.90625 10.5 52.171875 7 
Q 50.4375 3.515625 47.796875 1.1875 
Q 45.171875 -1.125 41.609375 -1.125 
Q 38.09375 -1.125 35.59375 1.296875 
Q 33.109375 3.71875 33.109375 7.171875 
Q 33.109375 9.03125 33.890625 11.078125 
Q 36.71875 18.609375 38.59375 24.515625 
Q 40.484375 30.421875 40.484375 34.90625 
Q 40.484375 37.796875 39.359375 39.703125 
Q 38.234375 41.609375 35.59375 41.609375 
Q 30.21875 41.609375 26.21875 38.3125 
Q 22.21875 35.015625 19.28125 29.59375 
L 12.5 2.296875 
Q 12.109375 0.78125 10.984375 -0.171875 
Q 9.859375 -1.125 8.40625 -1.125 
Q 7.125 -1.125 6.21875 -0.265625 
Q 5.328125 0.59375 5.328125 1.8125 
" id="Cmmi10-68"/>
     </defs>
     <g style="fill:#348fba;" transform="translate(48.1703125 251.91)rotate(-90.0)scale(0.18 -0.18)">
      <use transform="translate(0.0 0.609375)" xlink:href="#Cmmi10-70"/>
      <use transform="translate(50.29296875 0.609375)" xlink:href="#Cmmi10-68"/>
     </g>
    </g>
   </g>
   <g id="PathCollection_1">
    <defs>
     <path d="M -2.705981 -6.532815 
L -6.532815 -2.705981 
L -6.532815 2.705981 
L -2.705981 6.532815 
L 2.705981 6.532815 
L 6.532815 2.705981 
L 6.532815 -2.705981 
L 2.705981 -6.532815 
z
" id="C0_0_0884bc4357"/>
    </defs>
    <g clip-path="url(#pa61f52339c)">
     <use style="fill:#0000ff;fill-opacity:0.4;stroke:#000000;stroke-opacity:0.4;stroke-width:0.5;" x="310.591019619" xlink:href="#C0_0_0884bc4357" y="309.331852487"/>
    </g>
    <g clip-path="url(#pa61f52339c)">
     <use style="fill:#0000ff;fill-opacity:0.4;stroke:#000000;stroke-opacity:0.4;stroke-width:0.5;" x="239.819535783" xlink:href="#C0_0_0884bc4357" y="148.631680961"/>
    </g>
    <g clip-path="url(#pa61f52339c)">
     <use style="fill:#0000ff;fill-opacity:0.4;stroke:#000000;stroke-opacity:0.4;stroke-width:0.5;" x="207.90298425" xlink:href="#C0_0_0884bc4357" y="334.647632933"/>
    </g>
    <g clip-path="url(#pa61f52339c)">
     <use style="fill:#0000ff;fill-opacity:0.4;stroke:#000000;stroke-opacity:0.4;stroke-width:0.5;" x="137.131500414" xlink:href="#C0_0_0884bc4357" y="223.478336192"/>
    </g>
    <g clip-path="url(#pa61f52339c)">
     <use style="fill:#0000ff;fill-opacity:0.4;stroke:#000000;stroke-opacity:0.4;stroke-width:0.5;" x="384.137855761" xlink:href="#C0_0_0884bc4357" y="361.064099485"/>
    </g>
    <g clip-path="url(#pa61f52339c)">
     <use style="fill:#0000ff;fill-opacity:0.4;stroke:#000000;stroke-opacity:0.4;stroke-width:0.5;" x="274.511439624" xlink:href="#C0_0_0884bc4357" y="322.540085763"/>
    </g>
    <g clip-path="url(#pa61f52339c)">
     <use style="fill:#0000ff;fill-opacity:0.4;stroke:#000000;stroke-opacity:0.4;stroke-width:0.5;" x="531.231528046" xlink:href="#C0_0_0884bc4357" y="317.036655232"/>
    </g>
    <g clip-path="url(#pa61f52339c)">
     <use style="fill:#0000ff;fill-opacity:0.4;stroke:#000000;stroke-opacity:0.4;stroke-width:0.5;" x="336.956866538" xlink:href="#C0_0_0884bc4357" y="345.654493997"/>
    </g>
    <g clip-path="url(#pa61f52339c)">
     <use style="fill:#0000ff;fill-opacity:0.4;stroke:#000000;stroke-opacity:0.4;stroke-width:0.5;" x="389.688560376" xlink:href="#C0_0_0884bc4357" y="266.40509434"/>
    </g>
    <g clip-path="url(#pa61f52339c)">
     <use style="fill:#0000ff;fill-opacity:0.4;stroke:#000000;stroke-opacity:0.4;stroke-width:0.5;" x="192.63854656" xlink:href="#C0_0_0884bc4357" y="259.800977702"/>
    </g>
    <g clip-path="url(#pa61f52339c)">
     <use style="fill:#0000ff;fill-opacity:0.4;stroke:#000000;stroke-opacity:0.4;stroke-width:0.5;" x="427.155816524" xlink:href="#C0_0_0884bc4357" y="332.44626072"/>
    </g>
    <g clip-path="url(#pa61f52339c)">
     <use style="fill:#0000ff;fill-opacity:0.4;stroke:#000000;stroke-opacity:0.4;stroke-width:0.5;" x="189.863194253" xlink:href="#C0_0_0884bc4357" y="157.437169811"/>
    </g>
    <g clip-path="url(#pa61f52339c)">
     <use style="fill:#0000ff;fill-opacity:0.4;stroke:#000000;stroke-opacity:0.4;stroke-width:0.5;" x="170.435728102" xlink:href="#C0_0_0884bc4357" y="352.258610635"/>
    </g>
    <g clip-path="url(#pa61f52339c)">
     <use style="fill:#0000ff;fill-opacity:0.4;stroke:#000000;stroke-opacity:0.4;stroke-width:0.5;" x="281.449820392" xlink:href="#C0_0_0884bc4357" y="367.668216123"/>
    </g>
    <g clip-path="url(#pa61f52339c)">
     <use style="fill:#0000ff;fill-opacity:0.4;stroke:#000000;stroke-opacity:0.4;stroke-width:0.5;" x="395.23926499" xlink:href="#C0_0_0884bc4357" y="401.78948542"/>
    </g>
    <g clip-path="url(#pa61f52339c)">
     <use style="fill:#0000ff;fill-opacity:0.4;stroke:#000000;stroke-opacity:0.4;stroke-width:0.5;" x="149.620585797" xlink:href="#C0_0_0884bc4357" y="211.370789022"/>
    </g>
    <g clip-path="url(#pa61f52339c)">
     <use style="fill:#0000ff;fill-opacity:0.4;stroke:#000000;stroke-opacity:0.4;stroke-width:0.5;" x="485.438214977" xlink:href="#C0_0_0884bc4357" y="191.558439108"/>
    </g>
    <g clip-path="url(#pa61f52339c)">
     <use style="fill:#0000ff;fill-opacity:0.4;stroke:#000000;stroke-opacity:0.4;stroke-width:0.5;" x="395.23926499" xlink:href="#C0_0_0884bc4357" y="183.853636364"/>
    </g>
    <g clip-path="url(#pa61f52339c)">
     <use style="fill:#0000ff;fill-opacity:0.4;stroke:#000000;stroke-opacity:0.4;stroke-width:0.5;" x="360.547361149" xlink:href="#C0_0_0884bc4357" y="265.304408233"/>
    </g>
    <g clip-path="url(#pa61f52339c)">
     <use style="fill:#0000ff;fill-opacity:0.4;stroke:#000000;stroke-opacity:0.4;stroke-width:0.5;" x="447.970958828" xlink:href="#C0_0_0884bc4357" y="247.693430532"/>
    </g>
    <g clip-path="url(#pa61f52339c)">
     <use style="fill:#0000ff;fill-opacity:0.4;stroke:#000000;stroke-opacity:0.4;stroke-width:0.5;" x="502.09032882" xlink:href="#C0_0_0884bc4357" y="339.050377358"/>
    </g>
    <g clip-path="url(#pa61f52339c)">
     <use style="fill:#0000ff;fill-opacity:0.4;stroke:#000000;stroke-opacity:0.4;stroke-width:0.5;" x="450.746311136" xlink:href="#C0_0_0884bc4357" y="128.819331046"/>
    </g>
    <g clip-path="url(#pa61f52339c)">
     <use style="fill:#0000ff;fill-opacity:0.4;stroke:#000000;stroke-opacity:0.4;stroke-width:0.5;" x="188.475518099" xlink:href="#C0_0_0884bc4357" y="285.116758148"/>
    </g>
    <g clip-path="url(#pa61f52339c)">
     <use style="fill:#0000ff;fill-opacity:0.4;stroke:#000000;stroke-opacity:0.4;stroke-width:0.5;" x="435.481873446" xlink:href="#C0_0_0884bc4357" y="315.935969125"/>
    </g>
    <g clip-path="url(#pa61f52339c)">
     <use style="fill:#0000ff;fill-opacity:0.4;stroke:#000000;stroke-opacity:0.4;stroke-width:0.5;" x="155.171290412" xlink:href="#C0_0_0884bc4357" y="197.06186964"/>
    </g>
    <g clip-path="url(#pa61f52339c)">
     <use style="fill:#0000ff;fill-opacity:0.4;stroke:#000000;stroke-opacity:0.4;stroke-width:0.5;" x="391.076236529" xlink:href="#C0_0_0884bc4357" y="103.5035506"/>
    </g>
    <g clip-path="url(#pa61f52339c)">
     <use style="fill:#0000ff;fill-opacity:0.4;stroke:#000000;stroke-opacity:0.4;stroke-width:0.5;" x="169.048051948" xlink:href="#C0_0_0884bc4357" y="213.572161235"/>
    </g>
    <g clip-path="url(#pa61f52339c)">
     <use style="fill:#0000ff;fill-opacity:0.4;stroke:#000000;stroke-opacity:0.4;stroke-width:0.5;" x="103.827272727" xlink:href="#C0_0_0884bc4357" y="295.022933105"/>
    </g>
    <g clip-path="url(#pa61f52339c)">
     <use style="fill:#0000ff;fill-opacity:0.4;stroke:#000000;stroke-opacity:0.4;stroke-width:0.5;" x="435.481873446" xlink:href="#C0_0_0884bc4357" y="342.352435678"/>
    </g>
    <g clip-path="url(#pa61f52339c)">
     <use style="fill:#0000ff;fill-opacity:0.4;stroke:#000000;stroke-opacity:0.4;stroke-width:0.5;" x="384.137855761" xlink:href="#C0_0_0884bc4357" y="69.3822813036"/>
    </g>
    <g clip-path="url(#pa61f52339c)">
     <use style="fill:#0000ff;fill-opacity:0.4;stroke:#000000;stroke-opacity:0.4;stroke-width:0.5;" x="248.145592705" xlink:href="#C0_0_0884bc4357" y="282.915385935"/>
    </g>
    <g clip-path="url(#pa61f52339c)">
     <use style="fill:#0000ff;fill-opacity:0.4;stroke:#000000;stroke-opacity:0.4;stroke-width:0.5;" x="252.308621166" xlink:href="#C0_0_0884bc4357" y="219.075591767"/>
    </g>
    <g clip-path="url(#pa61f52339c)">
     <use style="fill:#0000ff;fill-opacity:0.4;stroke:#000000;stroke-opacity:0.4;stroke-width:0.5;" x="145.457557336" xlink:href="#C0_0_0884bc4357" y="287.31813036"/>
    </g>
    <g clip-path="url(#pa61f52339c)">
     <use style="fill:#0000ff;fill-opacity:0.4;stroke:#000000;stroke-opacity:0.4;stroke-width:0.5;" x="560.372727273" xlink:href="#C0_0_0884bc4357" y="297.224305317"/>
    </g>
    <g clip-path="url(#pa61f52339c)">
     <use style="fill:#0000ff;fill-opacity:0.4;stroke:#000000;stroke-opacity:0.4;stroke-width:0.5;" x="360.547361149" xlink:href="#C0_0_0884bc4357" y="318.137341338"/>
    </g>
    <g clip-path="url(#pa61f52339c)">
     <use style="fill:#0000ff;fill-opacity:0.4;stroke:#000000;stroke-opacity:0.4;stroke-width:0.5;" x="235.656507322" xlink:href="#C0_0_0884bc4357" y="236.686569468"/>
    </g>
    <g clip-path="url(#pa61f52339c)">
     <use style="fill:#0000ff;fill-opacity:0.4;stroke:#000000;stroke-opacity:0.4;stroke-width:0.5;" x="373.036446532" xlink:href="#C0_0_0884bc4357" y="242.19"/>
    </g>
    <g clip-path="url(#pa61f52339c)">
     <use style="fill:#0000ff;fill-opacity:0.4;stroke:#000000;stroke-opacity:0.4;stroke-width:0.5;" x="202.352279635" xlink:href="#C0_0_0884bc4357" y="239.988627787"/>
    </g>
    <g clip-path="url(#pa61f52339c)">
     <use style="fill:#0000ff;fill-opacity:0.4;stroke:#000000;stroke-opacity:0.4;stroke-width:0.5;" x="356.384332689" xlink:href="#C0_0_0884bc4357" y="260.901663808"/>
    </g>
    <g clip-path="url(#pa61f52339c)">
     <use style="fill:#0000ff;fill-opacity:0.4;stroke:#000000;stroke-opacity:0.4;stroke-width:0.5;" x="393.851588837" xlink:href="#C0_0_0884bc4357" y="354.459982847"/>
    </g>
    <g clip-path="url(#pa61f52339c)">
     <use style="fill:#0000ff;fill-opacity:0.4;stroke:#000000;stroke-opacity:0.4;stroke-width:0.5;" x="278.674468085" xlink:href="#C0_0_0884bc4357" y="320.338713551"/>
    </g>
    <g clip-path="url(#pa61f52339c)">
     <use style="fill:#0000ff;fill-opacity:0.4;stroke:#000000;stroke-opacity:0.4;stroke-width:0.5;" x="323.080105001" xlink:href="#C0_0_0884bc4357" y="193.759811321"/>
    </g>
    <g clip-path="url(#pa61f52339c)">
     <use style="fill:#0000ff;fill-opacity:0.4;stroke:#000000;stroke-opacity:0.4;stroke-width:0.5;" x="219.004393479" xlink:href="#C0_0_0884bc4357" y="284.016072041"/>
    </g>
    <g clip-path="url(#pa61f52339c)">
     <use style="fill:#0000ff;fill-opacity:0.4;stroke:#000000;stroke-opacity:0.4;stroke-width:0.5;" x="529.843851893" xlink:href="#C0_0_0884bc4357" y="315.935969125"/>
    </g>
    <g clip-path="url(#pa61f52339c)">
     <use style="fill:#00ff80;fill-opacity:0.4;stroke:#000000;stroke-opacity:0.4;stroke-width:0.5;" x="420.217435756" xlink:href="#C0_0_0884bc4357" y="287.31813036"/>
    </g>
    <g clip-path="url(#pa61f52339c)">
     <use style="fill:#00ff80;fill-opacity:0.4;stroke:#000000;stroke-opacity:0.4;stroke-width:0.5;" x="303.652638851" xlink:href="#C0_0_0884bc4357" y="306.029794168"/>
    </g>
    <g clip-path="url(#pa61f52339c)">
     <use style="fill:#00ff80;fill-opacity:0.4;stroke:#000000;stroke-opacity:0.4;stroke-width:0.5;" x="442.420254214" xlink:href="#C0_0_0884bc4357" y="324.741457976"/>
    </g>
    <g clip-path="url(#pa61f52339c)">
     <use style="fill:#00ff80;fill-opacity:0.4;stroke:#000000;stroke-opacity:0.4;stroke-width:0.5;" x="466.010748826" xlink:href="#C0_0_0884bc4357" y="332.44626072"/>
    </g>
    <g clip-path="url(#pa61f52339c)">
     <use style="fill:#00ff80;fill-opacity:0.4;stroke:#000000;stroke-opacity:0.4;stroke-width:0.5;" x="416.054407295" xlink:href="#C0_0_0884bc4357" y="351.157924528"/>
    </g>
    <g clip-path="url(#pa61f52339c)">
     <use style="fill:#00ff80;fill-opacity:0.4;stroke:#000000;stroke-opacity:0.4;stroke-width:0.5;" x="393.851588837" xlink:href="#C0_0_0884bc4357" y="373.171646655"/>
    </g>
    <g clip-path="url(#pa61f52339c)">
     <use style="fill:#00ff80;fill-opacity:0.4;stroke:#000000;stroke-opacity:0.4;stroke-width:0.5;" x="330.01848577" xlink:href="#C0_0_0884bc4357" y="296.123619211"/>
    </g>
    <g clip-path="url(#pa61f52339c)">
     <use style="fill:#00ff80;fill-opacity:0.4;stroke:#000000;stroke-opacity:0.4;stroke-width:0.5;" x="188.475518099" xlink:href="#C0_0_0884bc4357" y="250.995488851"/>
    </g>
    <g clip-path="url(#pa61f52339c)">
     <use style="fill:#00ff80;fill-opacity:0.4;stroke:#000000;stroke-opacity:0.4;stroke-width:0.5;" x="330.01848577" xlink:href="#C0_0_0884bc4357" y="169.544716981"/>
    </g>
    <g clip-path="url(#pa61f52339c)">
     <use style="fill:#00ff80;fill-opacity:0.4;stroke:#000000;stroke-opacity:0.4;stroke-width:0.5;" x="184.312489638" xlink:href="#C0_0_0884bc4357" y="266.40509434"/>
    </g>
    <g clip-path="url(#pa61f52339c)">
     <use style="fill:#00ff80;fill-opacity:0.4;stroke:#000000;stroke-opacity:0.4;stroke-width:0.5;" x="274.511439624" xlink:href="#C0_0_0884bc4357" y="310.432538593"/>
    </g>
    <g clip-path="url(#pa61f52339c)">
     <use style="fill:#00ff80;fill-opacity:0.4;stroke:#000000;stroke-opacity:0.4;stroke-width:0.5;" x="306.427991158" xlink:href="#C0_0_0884bc4357" y="67.1809090909"/>
    </g>
    <g clip-path="url(#pa61f52339c)">
     <use style="fill:#00ff80;fill-opacity:0.4;stroke:#000000;stroke-opacity:0.4;stroke-width:0.5;" x="231.493478862" xlink:href="#C0_0_0884bc4357" y="249.894802744"/>
    </g>
    <g clip-path="url(#pa61f52339c)">
     <use style="fill:#00ff80;fill-opacity:0.4;stroke:#000000;stroke-opacity:0.4;stroke-width:0.5;" x="360.547361149" xlink:href="#C0_0_0884bc4357" y="329.144202401"/>
    </g>
    <g clip-path="url(#pa61f52339c)">
     <use style="fill:#00ff80;fill-opacity:0.4;stroke:#000000;stroke-opacity:0.4;stroke-width:0.5;" x="407.728350373" xlink:href="#C0_0_0884bc4357" y="312.633910806"/>
    </g>
    <g clip-path="url(#pa61f52339c)">
     <use style="fill:#00ff80;fill-opacity:0.4;stroke:#000000;stroke-opacity:0.4;stroke-width:0.5;" x="416.054407295" xlink:href="#C0_0_0884bc4357" y="259.800977702"/>
    </g>
    <g clip-path="url(#pa61f52339c)">
     <use style="fill:#00ff80;fill-opacity:0.4;stroke:#000000;stroke-opacity:0.4;stroke-width:0.5;" x="411.891378834" xlink:href="#C0_0_0884bc4357" y="364.366157804"/>
    </g>
    <g clip-path="url(#pa61f52339c)">
     <use style="fill:#00ff80;fill-opacity:0.4;stroke:#000000;stroke-opacity:0.4;stroke-width:0.5;" x="436.869549599" xlink:href="#C0_0_0884bc4357" y="326.942830189"/>
    </g>
    <g clip-path="url(#pa61f52339c)">
     <use style="fill:#00ff80;fill-opacity:0.4;stroke:#000000;stroke-opacity:0.4;stroke-width:0.5;" x="238.43185963" xlink:href="#C0_0_0884bc4357" y="282.915385935"/>
    </g>
    <g clip-path="url(#pa61f52339c)">
     <use style="fill:#00ff80;fill-opacity:0.4;stroke:#000000;stroke-opacity:0.4;stroke-width:0.5;" x="321.692428848" xlink:href="#C0_0_0884bc4357" y="326.942830189"/>
    </g>
    <g clip-path="url(#pa61f52339c)">
     <use style="fill:#00ff80;fill-opacity:0.4;stroke:#000000;stroke-opacity:0.4;stroke-width:0.5;" x="280.062144239" xlink:href="#C0_0_0884bc4357" y="291.720874786"/>
    </g>
    <g clip-path="url(#pa61f52339c)">
     <use style="fill:#00ff80;fill-opacity:0.4;stroke:#000000;stroke-opacity:0.4;stroke-width:0.5;" x="103.827272727" xlink:href="#C0_0_0884bc4357" y="198.162555746"/>
    </g>
    <g clip-path="url(#pa61f52339c)">
     <use style="fill:#00ff80;fill-opacity:0.4;stroke:#000000;stroke-opacity:0.4;stroke-width:0.5;" x="499.314976513" xlink:href="#C0_0_0884bc4357" y="181.652264151"/>
    </g>
    <g clip-path="url(#pa61f52339c)">
     <use style="fill:#00ff80;fill-opacity:0.4;stroke:#000000;stroke-opacity:0.4;stroke-width:0.5;" x="341.119894999" xlink:href="#C0_0_0884bc4357" y="248.794116638"/>
    </g>
    <g clip-path="url(#pa61f52339c)">
     <use style="fill:#00ff80;fill-opacity:0.4;stroke:#000000;stroke-opacity:0.4;stroke-width:0.5;" x="205.127631943" xlink:href="#C0_0_0884bc4357" y="417.199090909"/>
    </g>
    <g clip-path="url(#pa61f52339c)">
     <use style="fill:#00ff80;fill-opacity:0.4;stroke:#000000;stroke-opacity:0.4;stroke-width:0.5;" x="373.036446532" xlink:href="#C0_0_0884bc4357" y="346.755180103"/>
    </g>
    <g clip-path="url(#pa61f52339c)">
     <use style="fill:#00ff80;fill-opacity:0.4;stroke:#000000;stroke-opacity:0.4;stroke-width:0.5;" x="435.481873446" xlink:href="#C0_0_0884bc4357" y="375.373018868"/>
    </g>
    <g clip-path="url(#pa61f52339c)">
     <use style="fill:#00ff80;fill-opacity:0.4;stroke:#000000;stroke-opacity:0.4;stroke-width:0.5;" x="307.815667311" xlink:href="#C0_0_0884bc4357" y="380.8764494"/>
    </g>
    <g clip-path="url(#pa61f52339c)">
     <use style="fill:#00ff80;fill-opacity:0.4;stroke:#000000;stroke-opacity:0.4;stroke-width:0.5;" x="360.547361149" xlink:href="#C0_0_0884bc4357" y="71.5836535163"/>
    </g>
    <g clip-path="url(#pa61f52339c)">
     <use style="fill:#00ff80;fill-opacity:0.4;stroke:#000000;stroke-opacity:0.4;stroke-width:0.5;" x="217.616717325" xlink:href="#C0_0_0884bc4357" y="411.695660377"/>
    </g>
    <g clip-path="url(#pa61f52339c)">
     <use style="fill:#00ff80;fill-opacity:0.4;stroke:#000000;stroke-opacity:0.4;stroke-width:0.5;" x="335.569190384" xlink:href="#C0_0_0884bc4357" y="346.755180103"/>
    </g>
    <g clip-path="url(#pa61f52339c)">
     <use style="fill:#00ff80;fill-opacity:0.4;stroke:#000000;stroke-opacity:0.4;stroke-width:0.5;" x="330.01848577" xlink:href="#C0_0_0884bc4357" y="191.558439108"/>
    </g>
    <g clip-path="url(#pa61f52339c)">
     <use style="fill:#00ff80;fill-opacity:0.4;stroke:#000000;stroke-opacity:0.4;stroke-width:0.5;" x="210.678336557" xlink:href="#C0_0_0884bc4357" y="277.411955403"/>
    </g>
   </g>
   <g id="patch_3">
    <path d="M 81 434.7 
L 81 49.68 
" style="fill:none;stroke:#ffffff;stroke-linecap:square;stroke-linejoin:miter;"/>
   </g>
   <g id="patch_4">
    <path d="M 81 49.68 
L 583.2 49.68 
" style="fill:none;stroke:#ffffff;stroke-linecap:square;stroke-linejoin:miter;"/>
   </g>
   <g id="patch_5">
    <path d="M 583.2 434.7 
L 583.2 49.68 
" style="fill:none;stroke:#ffffff;stroke-linecap:square;stroke-linejoin:miter;"/>
   </g>
   <g id="patch_6">
    <path d="M 81 434.7 
L 583.2 434.7 
" style="fill:none;stroke:#ffffff;stroke-linecap:square;stroke-linejoin:miter;"/>
   </g>
   <g id="text_14">
    <!-- $Scatter$ $Between$ $Urea$ $and$ $ph$ -->
    <defs>
     <path d="M 6.109375 -2.203125 
Q 5.8125 -2.203125 5.5625 -1.859375 
Q 5.328125 -1.515625 5.328125 -1.21875 
L 11.078125 22.125 
Q 11.28125 22.703125 11.921875 22.703125 
L 13.09375 22.703125 
Q 13.484375 22.703125 13.703125 22.40625 
Q 13.921875 22.125 13.921875 21.6875 
Q 13.09375 18.265625 13.09375 15.578125 
Q 13.09375 8.34375 18.0625 4.828125 
Q 23.046875 1.3125 30.609375 1.3125 
Q 33.890625 1.3125 37.0625 2.921875 
Q 40.234375 4.546875 42.59375 7.125 
Q 44.96875 9.71875 46.375 12.90625 
Q 47.796875 16.109375 47.796875 19.390625 
Q 47.796875 22.90625 45.9375 25.65625 
Q 44.09375 28.421875 40.828125 29.203125 
L 28.609375 32.421875 
Q 23.6875 33.734375 20.75 37.71875 
Q 17.828125 41.703125 17.828125 46.6875 
Q 17.828125 52.6875 21.390625 58.25 
Q 24.953125 63.8125 30.6875 67.15625 
Q 36.421875 70.515625 42.390625 70.515625 
Q 46.96875 70.515625 50.796875 68.828125 
Q 54.640625 67.140625 56.6875 63.484375 
L 62.40625 70.21875 
Q 62.984375 70.515625 63.09375 70.515625 
L 63.71875 70.515625 
Q 64.109375 70.515625 64.34375 70.171875 
Q 64.59375 69.828125 64.59375 69.484375 
L 58.796875 46.296875 
Q 58.640625 45.609375 58.015625 45.609375 
L 56.78125 45.609375 
Q 55.90625 45.609375 55.90625 46.6875 
Q 56.390625 49.859375 56.390625 52.203125 
Q 56.390625 56.84375 54.796875 60.28125 
Q 53.21875 63.71875 50.015625 65.5 
Q 46.828125 67.28125 42.09375 67.28125 
Q 38.09375 67.28125 34.125 64.984375 
Q 30.171875 62.703125 27.734375 58.890625 
Q 25.296875 55.078125 25.296875 50.984375 
Q 25.296875 47.75 27.171875 45.265625 
Q 29.046875 42.78125 32.171875 41.890625 
L 44.390625 38.71875 
Q 47.703125 37.84375 50.171875 35.625 
Q 52.640625 33.40625 53.90625 30.34375 
Q 55.171875 27.296875 55.171875 23.6875 
Q 55.171875 18.953125 53.171875 14.328125 
Q 51.171875 9.71875 47.578125 5.90625 
Q 44 2.09375 39.453125 -0.046875 
Q 34.90625 -2.203125 30.171875 -2.203125 
Q 18.265625 -2.203125 13.09375 4.78125 
L 7.515625 -1.90625 
Q 6.9375 -2.203125 6.78125 -2.203125 
z
" id="Cmmi10-53"/>
     <path d="M 17.390625 -1.125 
Q 11.078125 -1.125 7.4375 3.640625 
Q 3.8125 8.40625 3.8125 14.890625 
Q 3.8125 21.296875 7.125 28.171875 
Q 10.453125 35.0625 16.09375 39.625 
Q 21.734375 44.1875 28.21875 44.1875 
Q 31.15625 44.1875 33.515625 42.546875 
Q 35.890625 40.921875 37.203125 38.1875 
L 42.828125 60.5 
Q 43.21875 62.203125 43.3125 63.1875 
Q 43.3125 64.796875 36.8125 64.796875 
Q 35.796875 64.796875 35.796875 66.109375 
Q 35.84375 66.359375 36.015625 66.984375 
Q 36.1875 67.625 36.453125 67.96875 
Q 36.71875 68.3125 37.203125 68.3125 
L 50.6875 69.390625 
Q 51.90625 69.390625 51.90625 68.109375 
L 37.5 10.59375 
Q 36.8125 8.9375 36.8125 5.8125 
Q 36.8125 1.515625 39.703125 1.515625 
Q 42.828125 1.515625 44.453125 5.484375 
Q 46.09375 9.46875 47.21875 14.703125 
Q 47.40625 15.28125 48 15.28125 
L 49.21875 15.28125 
Q 49.609375 15.28125 49.84375 14.9375 
Q 50.09375 14.59375 50.09375 14.3125 
Q 48.34375 7.328125 46.265625 3.09375 
Q 44.1875 -1.125 39.5 -1.125 
Q 36.140625 -1.125 33.546875 0.84375 
Q 30.953125 2.828125 30.328125 6.109375 
Q 23.875 -1.125 17.390625 -1.125 
M 17.484375 1.515625 
Q 21.09375 1.515625 24.484375 4.21875 
Q 27.875 6.9375 30.328125 10.59375 
Q 30.421875 10.6875 30.421875 10.984375 
L 35.890625 33.015625 
Q 35.296875 36.53125 33.296875 39.0625 
Q 31.296875 41.609375 27.984375 41.609375 
Q 24.609375 41.609375 21.703125 38.84375 
Q 18.796875 36.078125 16.796875 32.328125 
Q 14.84375 28.328125 13.0625 21.34375 
Q 11.28125 14.359375 11.28125 10.5 
Q 11.28125 7.03125 12.765625 4.265625 
Q 14.265625 1.515625 17.484375 1.515625 
" id="Cmmi10-64"/>
     <path d="M 10.796875 11.625 
Q 10.796875 13.71875 11.359375 16.453125 
Q 11.921875 19.1875 12.59375 21.3125 
Q 13.28125 23.4375 14.90625 27.828125 
Q 16.546875 32.234375 16.703125 32.625 
Q 18.015625 36.28125 18.015625 38.625 
Q 18.015625 41.609375 15.828125 41.609375 
Q 11.859375 41.609375 9.296875 37.53125 
Q 6.734375 33.453125 5.515625 28.421875 
Q 5.328125 27.78125 4.6875 27.78125 
L 3.515625 27.78125 
Q 2.6875 27.78125 2.6875 28.71875 
L 2.6875 29 
Q 4.296875 34.96875 7.609375 39.578125 
Q 10.9375 44.1875 16.015625 44.1875 
Q 19.578125 44.1875 22.046875 41.84375 
Q 24.515625 39.5 24.515625 35.890625 
Q 24.515625 34.03125 23.6875 31.984375 
Q 22.515625 28.953125 20.921875 24.703125 
Q 19.34375 20.453125 18.453125 16.984375 
Q 17.578125 13.53125 17.578125 10.296875 
Q 17.578125 6.390625 19.625 3.953125 
Q 21.6875 1.515625 25.59375 1.515625 
Q 30.90625 1.515625 34.421875 9.625 
Q 34.28125 10.203125 34.28125 11.28125 
Q 34.28125 13.96875 35.109375 17.390625 
L 40.71875 39.890625 
Q 41.0625 41.21875 42.28125 42.15625 
Q 43.5 43.109375 44.921875 43.109375 
Q 46.09375 43.109375 47 42.328125 
Q 47.90625 41.546875 47.90625 40.28125 
Q 47.90625 39.703125 47.796875 39.5 
L 42.1875 17.1875 
Q 41.21875 13.1875 41.21875 10.015625 
Q 41.21875 6.25 42.9375 3.875 
Q 44.671875 1.515625 48.390625 1.515625 
Q 54.828125 1.515625 58.984375 10.015625 
Q 60.546875 13.03125 62.46875 18.9375 
Q 64.40625 24.859375 64.40625 27.984375 
Q 64.40625 30.859375 63.46875 32.546875 
Q 62.546875 34.234375 60.90625 36.1875 
Q 59.28125 38.140625 59.28125 39.109375 
Q 59.28125 41.015625 60.90625 42.640625 
Q 62.546875 44.28125 64.5 44.28125 
Q 66.890625 44.28125 67.9375 42.078125 
Q 69 39.890625 69 37.109375 
Q 69 33.734375 67.875 28.53125 
Q 66.75 23.34375 65.03125 18.09375 
Q 63.328125 12.84375 61.8125 9.71875 
Q 56.34375 -1.125 48.1875 -1.125 
Q 44 -1.125 40.53125 0.484375 
Q 37.0625 2.09375 35.40625 5.609375 
Q 33.796875 2.734375 31.171875 0.796875 
Q 28.5625 -1.125 25.390625 -1.125 
Q 18.796875 -1.125 14.796875 2.015625 
Q 10.796875 5.171875 10.796875 11.625 
" id="Cmmi10-77"/>
     <path id="ArialMT-20"/>
     <path d="M 11.71875 11.921875 
Q 11.71875 7.5625 13.9375 4.53125 
Q 16.15625 1.515625 20.3125 1.515625 
Q 26.265625 1.515625 31.75 4.25 
Q 37.25 6.984375 40.71875 11.8125 
Q 41.015625 12.109375 41.5 12.109375 
Q 42 12.109375 42.5 11.546875 
Q 43.015625 10.984375 43.015625 10.5 
Q 43.015625 10.109375 42.828125 9.90625 
Q 39.15625 4.78125 32.953125 1.828125 
Q 26.765625 -1.125 20.125 -1.125 
Q 15.328125 -1.125 11.671875 1.140625 
Q 8.015625 3.421875 6 7.21875 
Q 4 11.03125 4 15.828125 
Q 4 22.5625 7.765625 29.203125 
Q 11.53125 35.84375 17.78125 40.015625 
Q 24.03125 44.1875 30.90625 44.1875 
Q 35.40625 44.1875 38.984375 42.015625 
Q 42.578125 39.84375 42.578125 35.59375 
Q 42.578125 32.859375 40.984375 30.921875 
Q 39.40625 29 36.71875 29 
Q 35.109375 29 34 30 
Q 32.90625 31 32.90625 32.625 
Q 32.90625 34.96875 34.609375 36.625 
Q 36.328125 38.28125 38.625 38.28125 
L 38.8125 38.28125 
Q 37.640625 39.984375 35.421875 40.796875 
Q 33.203125 41.609375 30.8125 41.609375 
Q 24.953125 41.609375 20.546875 36.59375 
Q 16.15625 31.59375 13.9375 24.625 
Q 11.71875 17.671875 11.71875 11.921875 
" id="Cmmi10-63"/>
     <path d="M 7.71875 1.703125 
Q 7.71875 2.296875 7.8125 2.59375 
L 15.28125 32.421875 
Q 16.015625 35.203125 16.015625 37.3125 
Q 16.015625 41.609375 13.09375 41.609375 
Q 9.96875 41.609375 8.453125 37.859375 
Q 6.9375 34.125 5.515625 28.421875 
Q 5.515625 28.125 5.21875 27.953125 
Q 4.9375 27.78125 4.6875 27.78125 
L 3.515625 27.78125 
Q 3.171875 27.78125 2.921875 28.140625 
Q 2.6875 28.515625 2.6875 28.8125 
Q 3.765625 33.15625 4.765625 36.171875 
Q 5.765625 39.203125 7.890625 41.6875 
Q 10.015625 44.1875 13.1875 44.1875 
Q 16.9375 44.1875 19.8125 41.8125 
Q 22.703125 39.453125 22.703125 35.796875 
Q 25.6875 39.703125 29.6875 41.9375 
Q 33.6875 44.1875 38.1875 44.1875 
Q 41.75 44.1875 44.328125 42.96875 
Q 46.921875 41.75 48.359375 39.28125 
Q 49.8125 36.8125 49.8125 33.40625 
Q 49.8125 29.296875 47.96875 23.484375 
Q 46.140625 17.671875 43.40625 10.5 
Q 42 7.234375 42 4.5 
Q 42 1.515625 44.28125 1.515625 
Q 48.1875 1.515625 50.796875 5.703125 
Q 53.421875 9.90625 54.5 14.703125 
Q 54.6875 15.28125 55.328125 15.28125 
L 56.5 15.28125 
Q 56.890625 15.28125 57.15625 15.03125 
Q 57.421875 14.796875 57.421875 14.40625 
Q 57.421875 14.3125 57.328125 14.109375 
Q 55.953125 8.453125 52.5625 3.65625 
Q 49.171875 -1.125 44.09375 -1.125 
Q 40.578125 -1.125 38.078125 1.296875 
Q 35.59375 3.71875 35.59375 7.171875 
Q 35.59375 9.03125 36.375 11.078125 
Q 37.640625 14.359375 39.28125 18.890625 
Q 40.921875 23.4375 41.96875 27.578125 
Q 43.015625 31.734375 43.015625 34.90625 
Q 43.015625 37.703125 41.859375 39.65625 
Q 40.71875 41.609375 37.984375 41.609375 
Q 34.328125 41.609375 31.25 39.984375 
Q 28.171875 38.375 25.875 35.71875 
Q 23.578125 33.0625 21.6875 29.390625 
L 14.890625 2.203125 
Q 14.546875 0.828125 13.34375 -0.140625 
Q 12.15625 -1.125 10.6875 -1.125 
Q 9.46875 -1.125 8.59375 -0.34375 
Q 7.71875 0.4375 7.71875 1.703125 
" id="Cmmi10-6e"/>
     <path d="M 4.984375 0 
Q 4 0 4 1.3125 
Q 4.046875 1.5625 4.1875 2.140625 
Q 4.34375 2.734375 4.578125 3.125 
Q 4.828125 3.515625 5.328125 3.515625 
Q 8.15625 3.515625 10.25 3.65625 
Q 12.359375 3.8125 13.8125 4.203125 
Q 14.984375 4.640625 15.71875 6.890625 
L 29.390625 61.8125 
Q 29.59375 62.796875 29.59375 63.1875 
Q 29.59375 64.265625 28.421875 64.40625 
Q 26.515625 64.796875 21.1875 64.796875 
Q 20.21875 64.796875 20.21875 66.109375 
Q 20.265625 66.359375 20.40625 66.96875 
Q 20.5625 67.578125 20.828125 67.9375 
Q 21.09375 68.3125 21.484375 68.3125 
L 57.328125 68.3125 
Q 60.59375 68.3125 63.796875 67.5 
Q 67 66.703125 69.703125 64.9375 
Q 72.40625 63.1875 74 60.5625 
Q 75.59375 57.953125 75.59375 54.5 
Q 75.59375 50.734375 73.65625 47.5 
Q 71.734375 44.28125 68.671875 41.890625 
Q 65.625 39.5 62.078125 37.953125 
Q 58.546875 36.421875 54.6875 35.6875 
Q 57.421875 35.6875 60.21875 34.609375 
Q 63.03125 33.546875 65.234375 31.6875 
Q 67.4375 29.828125 68.78125 27.234375 
Q 70.125 24.65625 70.125 21.6875 
Q 70.125 15.671875 65.921875 10.6875 
Q 61.71875 5.71875 55.34375 2.859375 
Q 48.96875 0 43.015625 0 
z
M 23.390625 4.296875 
Q 23.390625 3.515625 26.8125 3.515625 
L 41.109375 3.515625 
Q 46 3.515625 50.484375 6.21875 
Q 54.984375 8.9375 57.6875 13.421875 
Q 60.40625 17.921875 60.40625 22.796875 
Q 60.40625 25.78125 59.15625 28.4375 
Q 57.90625 31.109375 55.5625 32.640625 
Q 53.21875 34.1875 50.203125 34.1875 
L 30.71875 34.1875 
L 23.78125 6.5 
Q 23.390625 5.125 23.390625 4.296875 
M 31.390625 36.8125 
L 46.578125 36.8125 
Q 51.375 36.8125 55.890625 39.25 
Q 60.40625 41.703125 63.25 45.890625 
Q 66.109375 50.09375 66.109375 54.78125 
Q 66.109375 59.125 63.390625 61.953125 
Q 60.6875 64.796875 56.390625 64.796875 
L 42.671875 64.796875 
Q 39.984375 64.796875 39.0625 64.296875 
Q 38.140625 63.8125 37.5 61.375 
z
" id="Cmmi10-42"/>
     <path d="M 6.203125 8.109375 
Q 6.203125 9.578125 6.5 10.890625 
L 13.71875 39.59375 
L 3.21875 39.59375 
Q 2.203125 39.59375 2.203125 40.921875 
Q 2.59375 43.109375 3.515625 43.109375 
L 14.59375 43.109375 
L 18.609375 59.421875 
Q 19 60.75 20.171875 61.671875 
Q 21.34375 62.59375 22.796875 62.59375 
Q 24.078125 62.59375 24.921875 61.828125 
Q 25.78125 61.078125 25.78125 59.8125 
Q 25.78125 59.515625 25.75 59.34375 
Q 25.734375 59.1875 25.6875 58.984375 
L 21.6875 43.109375 
L 31.984375 43.109375 
Q 33.015625 43.109375 33.015625 41.796875 
Q 32.953125 41.546875 32.8125 40.953125 
Q 32.671875 40.375 32.421875 39.984375 
Q 32.171875 39.59375 31.6875 39.59375 
L 20.796875 39.59375 
L 13.625 10.6875 
Q 12.890625 7.859375 12.890625 5.8125 
Q 12.890625 1.515625 15.828125 1.515625 
Q 20.21875 1.515625 23.609375 5.640625 
Q 27 9.765625 28.8125 14.703125 
Q 29.203125 15.28125 29.59375 15.28125 
L 30.8125 15.28125 
Q 31.203125 15.28125 31.4375 15.015625 
Q 31.6875 14.75 31.6875 14.40625 
Q 31.6875 14.203125 31.59375 14.109375 
Q 29.390625 8.0625 25.1875 3.46875 
Q 21 -1.125 15.578125 -1.125 
Q 11.625 -1.125 8.90625 1.453125 
Q 6.203125 4.046875 6.203125 8.109375 
" id="Cmmi10-74"/>
    </defs>
    <g style="fill:#3e9145;" transform="translate(136.95 44.68)scale(0.3 -0.3)">
     <use transform="translate(0.0 0.484375)" xlink:href="#Cmmi10-53"/>
     <use transform="translate(61.279296875 0.484375)" xlink:href="#Cmmi10-63"/>
     <use transform="translate(104.4921875 0.484375)" xlink:href="#Cmmi10-61"/>
     <use transform="translate(157.275390625 0.484375)" xlink:href="#Cmmi10-74"/>
     <use transform="translate(193.359375 0.484375)" xlink:href="#Cmmi10-74"/>
     <use transform="translate(229.443359375 0.484375)" xlink:href="#Cmmi10-65"/>
     <use transform="translate(275.927734375 0.484375)" xlink:href="#Cmmi10-72"/>
     <use transform="translate(321.044921875 0.484375)" xlink:href="#ArialMT-20"/>
     <use transform="translate(348.828125 0.484375)" xlink:href="#Cmmi10-42"/>
     <use transform="translate(424.609375 0.484375)" xlink:href="#Cmmi10-65"/>
     <use transform="translate(471.09375 0.484375)" xlink:href="#Cmmi10-74"/>
     <use transform="translate(507.177734375 0.484375)" xlink:href="#Cmmi10-77"/>
     <use transform="translate(578.662109375 0.484375)" xlink:href="#Cmmi10-65"/>
     <use transform="translate(625.146484375 0.484375)" xlink:href="#Cmmi10-65"/>
     <use transform="translate(671.630859375 0.484375)" xlink:href="#Cmmi10-6e"/>
     <use transform="translate(731.640625 0.484375)" xlink:href="#ArialMT-20"/>
     <use transform="translate(759.423828125 0.484375)" xlink:href="#Cmmi10-55"/>
     <use transform="translate(827.63671875 0.484375)" xlink:href="#Cmmi10-72"/>
     <use transform="translate(872.75390625 0.484375)" xlink:href="#Cmmi10-65"/>
     <use transform="translate(919.23828125 0.484375)" xlink:href="#Cmmi10-61"/>
     <use transform="translate(972.021484375 0.484375)" xlink:href="#ArialMT-20"/>
     <use transform="translate(999.8046875 0.484375)" xlink:href="#Cmmi10-61"/>
     <use transform="translate(1052.587890625 0.484375)" xlink:href="#Cmmi10-6e"/>
     <use transform="translate(1112.59765625 0.484375)" xlink:href="#Cmmi10-64"/>
     <use transform="translate(1164.599609375 0.484375)" xlink:href="#ArialMT-20"/>
     <use transform="translate(1192.3828125 0.484375)" xlink:href="#Cmmi10-70"/>
     <use transform="translate(1242.67578125 0.484375)" xlink:href="#Cmmi10-68"/>
    </g>
   </g>
  </g>
 </g>
 <defs>
  <clipPath id="pa61f52339c">
   <rect height="385.02" width="502.2" x="81.0" y="49.68"/>
  </clipPath>
 </defs>
</svg>
